<svg aria-hidden="true" style="position:absolute;width:0;height:0;overflow:hidden" xmlns="http://www.w3.org/2000/svg">
    <defs>
        <symbol id="icon-painting" viewBox="0 0 26 32">
            <path fill="#383838" style="fill:var(--color1, #383838)" d="M23.591 14.063a2.53 2.53 0 0 0-1.827.558l.005-.004-2.055-3.802a7.45 7.45 0 0 1 3.601-1.098l.016-.001c.094 1.823 0 2.5.26 4.339zM23.073 9.094a8.632 8.632 0 0 0-3.65 1.085l.044-.023-1.563-8.578c-.156-.68-.167-1.18.594-1.563a1.033 1.033 0 0 1 .759.087l-.006-.003c.224.145.391.36.472.614l.002.008 3.349 8.372z"/>
            <path fill="#f7e5d9" style="fill:var(--color2, #f7e5d9)" d="M14.18 31.893c4.195-.607 7.917-3.352 10.07-6.818a2.129 2.129 0 0 1-.535-.151l.014.005a2.059 2.059 0 0 1-1.102-1.168l-.005-.014c-.156-.365-.703-.781-1.237-1.201-1.516-1.172-2.984-2.313-2.664-4.948a4.77 4.77 0 0 1 .533-1.655l-.012.025-1.982-3.646a2.03 2.03 0 0 1-.222-.644l-.002-.012c-.023-.047-.047-.091-.065-.138a9.76 9.76 0 0 1-1.796.818l-.071.021c-3.594 1.13-6.042-.487-3.219-4.198 1.93-2.536-2.328-4.833-6.102-2.271C2.71 7.984.046 12.575-.001 17.625c-.065 7.307 6.339 15.401 14.18 14.268z"/>
            <path fill="#33a867" style="fill:var(--color3, #33a867)" d="M3.505 21.674a2.318 2.318 0 1 0 .371-3.255l.005-.004a2.32 2.32 0 0 0-.372 3.263l-.004-.005z"/>
            <path fill="#fdba21" style="fill:var(--color4, #fdba21)" d="M8.745 27.529a2.677 2.677 0 1 0 .427-3.758l.005-.004a2.678 2.678 0 0 0-.428 3.769l-.004-.005z"/>
            <path fill="#fb434c" style="fill:var(--color5, #fb434c)" d="M16.06 25.336a2.201 2.201 0 0 0 3.441-2.741l.004.006c-1.797-2.26-5.242.469-3.445 2.734z"/>
            <path fill="#383838" style="fill:var(--color1, #383838)" d="M25.164 22.508c-.813-2.156-4.109-2.628-3.794-5.227.108-.756.516-1.4 1.099-1.817l.008-.005c.229-.158.506-.265.805-.296l.008-.001a1.778 1.778 0 0 1 .41 0l-.008-.001c1.706.219 2.448 2.003 2.438 3.549 0 1.427-.552 2.865-.964 3.802z"/>
            <path fill="#47bcff" style="fill:var(--color6, #47bcff)" d="M4.133 14.424a1.957 1.957 0 1 0 .311-2.746l.004-.003a1.952 1.952 0 0 0-.312 2.754l-.003-.004z"/>
        </symbol>

        <symbol id="icon-safety" viewBox="0 0 29 32">
            <path fill="#51b53c" style="fill:var(--color7, #51b53c)" d="M14.508 0c5.43 3.44 10.333 5.07 14.544 4.685.734 14.87-4.755 23.651-14.487 27.315C5.167 28.57-.391 20.167.021 4.458c4.943.26 9.789-.81 14.487-4.458z"/>
            <path fill="#fff" style="fill:var(--color8, #fff)" d="M14.513 1.836c4.805 3.047 9.148 4.487 12.872 4.146.651 13.161-4.211 20.935-12.823 24.18C6.244 27.126 1.325 19.688 1.69 5.784c4.375.229 8.667-.716 12.823-3.948z"/>
            <path fill="#51b53c" style="fill:var(--color7, #51b53c)" d="M14.646 5.089c3.703 2.346 7.047 3.456 9.917 3.195.5 10.141-3.242 16.128-9.88 18.628l-.125-.047-.125.047c-6.635-2.5-10.38-8.487-9.88-18.628 2.87.263 6.216-.849 9.917-3.195l.086.065.091-.065z"/>
            <path fill="#fff" style="fill:var(--color8, #fff)" d="m9.229 15.177 1.945-.026.146.036a7.422 7.422 0 0 1 1.823 1.469 28.166 28.166 0 0 1 2.229-3.104c.862-1.039 1.401-1.609 2.359-2.471l.19-.073h2.125l-.43.474c-1.315 1.461-2.138 2.602-3.216 4.159a44.63 44.63 0 0 0-2.904 4.828l-.268.516-.245-.526c-.453-.971-.995-1.862-1.641-2.659s-1.398-1.505-2.276-2.107l.161-.516z"/>
        </symbol>
        
        <symbol id="icon-sponge" viewBox="0 0 36 32">
            <path fill="#eab02b" style="fill:var(--color9, #eab02b)" d="M32.678 6.797c1.764 2.841 3.156 5.949 2.999 8.805-.363 6.642-8.375 7.549-12.376 9.842-3.39 1.943-7.082 6.801-12.019 6.546-1.77-.092-3.215-.763-4.44-1.77-1.435-1.179-2.571-2.82-3.578-4.534a13.046 13.046 0 0 1-1.577-2.182C.37 21.223-.271 18.547.107 16.068c.262-1.725.972-3.113 2.01-4.235C3.834 9.975 6.07 9.166 8.366 8.341c3.308-1.188 4.534-2.203 6.195-3.575.778-.643 1.65-1.363 2.89-2.231C19.229 1.291 20.996.372 22.789.09c1.822-.286 3.653.083 5.518 1.427 1.755 1.264 3.31 3.149 4.359 5.254l.013.026z"/>
            <path fill="#fcd95b" style="fill:var(--color10, #fcd95b)" d="M.478 16.124c-.729 4.787 2.486 10.356 6.996 12.118 3.101 1.212 5.935.302 8.517-1.656l.14-.107a61.172 61.172 0 0 0 1.784-1.462c3.997-3.382 5.39-3.029 9.654-5.018 3.354-1.565 5.823-3.588 6.095-6.987.33-4.115-2.262-8.803-5.577-11.191C24.533-.74 21.134.412 17.663 2.842 13.808 5.54 13.418 6.923 8.49 8.693a66.61 66.61 0 0 0-2.322.882C3.182 10.833.977 12.832.476 16.123zm10.488-.492a1.298 1.298 0 1 1 1.3 2.248 1.298 1.298 0 0 1-1.3-2.248zm-2.209-3.954a.784.784 0 1 1 .784 1.36.784.784 0 0 1-.784-1.361zm12.67 5.711a1.192 1.192 0 1 1-.435 1.627 1.192 1.192 0 0 1 .436-1.628zm-4.995-9.696a.716.716 0 1 1 .715 1.24.716.716 0 0 1-.715-1.24zm.104 7.623a.794.794 0 1 1 .793 1.375.794.794 0 0 1-.793-1.375zm-3.684-5.352a.794.794 0 1 1 .794 1.375.794.794 0 0 1-.794-1.375zm-7.14 4.297A.888.888 0 1 1 6.6 15.8a.888.888 0 0 1-.888-1.539zm22-4.903a.759.759 0 1 1 .76 1.315.759.759 0 0 1-.76-1.315zm-1.99-4.641a.9.9 0 1 1 .9 1.559.9.9 0 0 1-.9-1.559zm2.186 9.573a.71.71 0 1 1-.003.001l.003-.002zM22.48 8.392a.784.784 0 1 1 .784 1.358.784.784 0 0 1-.784-1.358zm-2.385-3.547a1.025 1.025 0 1 1 1.026 1.775 1.025 1.025 0 0 1-1.026-1.775zm-2.076 6.252a1.027 1.027 0 1 1 1.026 1.78 1.027 1.027 0 0 1-1.026-1.78zM8.227 23.542a.888.888 0 1 1 .888 1.54.888.888 0 1 1-.888-1.54zm-1.736-4.7a1.334 1.334 0 1 1 1.335 2.31 1.334 1.334 0 0 1-1.335-2.31zm6.191 4.141a.888.888 0 1 1 .888 1.54.888.888 0 1 1-.888-1.54zm1.597-4.001a.888.888 0 1 1 .89 1.538.888.888 0 0 1-.89-1.538zm8.572-6.765a1.3 1.3 0 1 1 1.3 2.25 1.3 1.3 0 0 1-1.3-2.25z"/>
        </symbol>
    </defs>
</svg>