<svg aria-hidden="true" style="position:absolute;width:0;height:0;overflow:hidden" xmlns="http://www.w3.org/2000/svg"><defs><symbol id="icon-follow-us-on-instagram" viewBox="0 0 109 32"><path fill="#a33183" style="fill:var(--color1, #a33183)" d="M27.544 30.096V.754h1.465v29.342h-1.465z"/><path fill="#a8277d" style="fill:var(--color2, #a8277d)" d="m37.982 21.982.105 2.711h-2.632l.132-2.456-.132-5.912h2.632l-.149 5.658zm9.141 0 .096 2.728h-2.816l-2.351-4.474h-.158v1.447l.105 3.026h-2.368l.132-2.456-.132-5.912h2.816l2.36 4.474h.149l-.079-4.386 2.386-.149-.167 5.684zm4.772-5.789a6.896 6.896 0 0 1 2.477.463l-.047-.016-.412 2.114-.36.149a6.194 6.194 0 0 0-1.035-.511l-.044-.015a2.463 2.463 0 0 0-.872-.193h-.005a.82.82 0 0 0-.477.116l.004-.002a.369.369 0 0 0-.175.307.5.5 0 0 0 .261.42l.003.001c.245.155.533.31.831.446l.046.019c.474.202.866.402 1.243.624l-.05-.027a2.8 2.8 0 0 1 .81.755l.006.008c.22.319.352.713.352 1.138l-.001.058v-.003.021a2.47 2.47 0 0 1-.444 1.417l.005-.008a2.96 2.96 0 0 1-1.174.957l-.019.008a4.241 4.241 0 0 1-1.765.378l-.108-.001h.005a8.688 8.688 0 0 1-2.824-.51l.06.019.377-2.254.254-.149a5.31 5.31 0 0 0 1.236.698l.036.013c.332.153.718.251 1.124.272h.008a.877.877 0 0 0 .531-.125l-.004.002a.387.387 0 0 0 .158-.307.528.528 0 0 0-.269-.455l-.003-.001a5.559 5.559 0 0 0-.84-.45l-.038-.015a9.339 9.339 0 0 1-1.21-.612l.043.024a2.643 2.643 0 0 1-.792-.754l-.006-.009a2.055 2.055 0 0 1-.334-1.131l.001-.066v.003-.029c0-.536.164-1.033.444-1.445l-.006.009c.305-.431.71-.772 1.183-.992l.018-.008a4.124 4.124 0 0 1 1.719-.369h.037-.002zm9.298.333-.14 1.886-1.675-.114h-.149l-.07 3.667.105 2.711h-2.623l.132-2.456-.026-3.921h-.167l-1.754.079-.149-.175.14-1.895h6.246l.14.184zm7.386 8.185h-2.632l-.228-1.386h-1.263l-1.061.053-.219 1.395h-2.544l2.535-8.368h3.123l2.289 8.368zm-3.254-3.307-.57-2.746h-.114l-.719 2.746h1.447zm7.982-5.202.141-.001a6.85 6.85 0 0 1 2.319.402l-.048-.015-.553 2.272h-.202a7.956 7.956 0 0 0-1.064-.448l-.059-.017a3.399 3.399 0 0 0-1.035-.097h.009a1.752 1.752 0 0 0-.887.197l.01-.005c-.23.159-.395.399-.455.677l-.001.007c-.096.38-.151.815-.151 1.264l.002.165v-.008a5.456 5.456 0 0 0 .157 1.485l-.008-.038c.062.294.238.539.478.69l.004.003a1.878 1.878 0 0 0 .998.201h-.006c.168-.005.328-.024.483-.056l-.018.003v-1.825l2.368-.167v3.43a8.282 8.282 0 0 1-2.988.57h-.003a4.03 4.03 0 0 1-3.064-1.081l.002.002a4.243 4.243 0 0 1-1.034-3.101l-.001.014a4.372 4.372 0 0 1 1.22-3.352l-.001.001a4.914 4.914 0 0 1 3.524-1.148l-.015-.001zm8.965 5.193a44.862 44.862 0 0 0 1.86 2.693v.281c-.774.25-1.671.422-2.6.481l-.032.002-.246-.211-.149-.325q-.105-.193-.421-.877a34.105 34.105 0 0 1-.535-1.246h-.877l.088 2.491h-2.632l.132-2.456-.132-5.912h3.965a3.172 3.172 0 0 1 2.182.672l-.007-.005a2.391 2.391 0 0 1 .763 1.929v-.008.008c0 .504-.137.977-.375 1.382l.007-.013c-.259.45-.604.823-1.015 1.107l-.011.007zm-1.333-2.22a1.005 1.005 0 0 0-.264-.764l.001.001a1.267 1.267 0 0 0-.881-.28h.004-.465l-.053 2.158.939.053c.224-.093.407-.247.532-.443l.003-.005c.106-.197.169-.431.169-.68l-.002-.078v.004zm11.096 5.536h-2.632l-.202-1.404h-1.272l-1.053.053-.228 1.395h-2.561l2.526-8.368h3.132l2.289 8.368zm-3.254-3.307-.57-2.746h-.158l-.719 2.746h1.447zm13.307 3.307h-2.272l-.088-2.553-.14-2.105h-.158l-1.342 3.851h-1.956l-1.088-3.851h-.158l-.184 1.86-.132 2.781h-2.158l.816-8.368h2.991l.246 1.193.737 3.035h.149l.816-2.947.298-1.281h2.947l.675 8.368zM36.105 8.597v1.114h1.439l.07.088-.079.877h-1.404v1.798h-1.237l.07-1.421-.07-3.377h3l.07.088-.088.877-1.158-.044zm4.711-1.018a2.032 2.032 0 0 1 1.587.613v.001a2.477 2.477 0 0 1 .552 1.763l.001-.008a2.747 2.747 0 0 1-.609 1.917l.004-.005a2.189 2.189 0 0 1-1.762.684h.007a2.003 2.003 0 0 1-1.578-.631l-.001-.001a2.613 2.613 0 0 1-.552-1.761v.007a2.677 2.677 0 0 1 .608-1.881l-.004.005a2.206 2.206 0 0 1 1.762-.658l-.008-.001zm-.105.965-.052-.001a.957.957 0 0 0-.505.144l.004-.002a.755.755 0 0 0-.306.433l-.001.005a3.031 3.031 0 0 0-.098.772l.002.111v-.005l-.001.094c0 .318.036.628.103.925l-.005-.028c.04.21.151.389.306.516l.002.001c.151.094.334.15.53.15l.052-.001h-.002a1.034 1.034 0 0 0 .567-.135l-.005.003a.79.79 0 0 0 .297-.451l.001-.005a2.685 2.685 0 0 0 .096-.884v.007l.001-.094c0-.315-.036-.622-.103-.916l.005.027a.88.88 0 0 0-.305-.508l-.002-.001a.964.964 0 0 0-.521-.151l-.061.002h.003zm6.14 3-.079.877h-2.719L44.114 11l-.061-3.377h1.219l-.061 3.254v.553h1.526l.07.088zm3.763 0-.079.877h-2.728l.07-1.421-.07-3.377h1.228l-.061 3.254v.553h1.544l.07.088zm2.781-3.965a2.032 2.032 0 0 1 1.587.613v.001a2.477 2.477 0 0 1 .552 1.763l.001-.008a2.747 2.747 0 0 1-.609 1.917l.004-.005a2.189 2.189 0 0 1-1.762.684h.007a2.003 2.003 0 0 1-1.578-.631l-.001-.001a2.613 2.613 0 0 1-.552-1.761v.007a2.677 2.677 0 0 1 .608-1.881l-.004.005a2.202 2.202 0 0 1 1.716-.658h-.006zm-.158.965a.95.95 0 0 0-.531.107l.005-.002a.755.755 0 0 0-.306.433l-.001.005a3.031 3.031 0 0 0-.098.772l.002.111v-.005l-.001.094c0 .318.036.628.103.925l-.005-.028c.04.21.151.389.306.516l.002.001c.151.094.334.15.53.15l.052-.001h-.002a1.034 1.034 0 0 0 .567-.135l-.005.003a.881.881 0 0 0 .306-.45l.002-.006a3.066 3.066 0 0 0 .087-.883v.007a4.122 4.122 0 0 0-.138-.985l.007.029a.88.88 0 0 0-.305-.508l-.002-.001a.966.966 0 0 0-.573-.149h.002zm7.895 3.903h-1.219l-.605-2.044h-.07l-.596 2.07h-1.281l-1.254-4.825h1.175l.07.658.693 2.912h.079l.702-2.421-.325-1.149h1.219l.105.772.719 2.798h.079l.807-2.851.123-.719h1.114l-1.509 4.798zm7.894-2.368v.693a1.564 1.564 0 0 1-.516 1.288l-.001.001a2.166 2.166 0 0 1-1.498.456h.007a2.058 2.058 0 0 1-1.434-.45l.004.003a1.567 1.567 0 0 1-.464-1.278l-.001.007V7.65h1.272l-.053 2.982a1.004 1.004 0 0 0 .195.696l-.002-.003a.796.796 0 0 0 .626.227h-.003l.058.002a.874.874 0 0 0 .583-.222l-.001.001a.942.942 0 0 0 .193-.679v.004l-.053-3.009h1.228v2.43zm3.106-2.5h.004c.464 0 .906.093 1.308.263l-.022-.008-.193 1.009-.175.061a2.787 2.787 0 0 0-.498-.248l-.02-.007a1.397 1.397 0 0 0-.49-.096h-.001a.558.558 0 0 0-.388.098l.002-.001a.35.35 0 0 0-.14.281.388.388 0 0 0 .183.315l.002.001c.164.116.352.219.551.3l.019.007c.274.126.496.243.711.37l-.035-.019c.174.12.322.262.444.425l.004.005c.116.174.185.388.185.617l-.001.043v-.002.001c0 .29-.085.559-.231.786l.003-.006a1.68 1.68 0 0 1-.656.548l-.01.004a2.349 2.349 0 0 1-.963.202h-.039.002a3.845 3.845 0 0 1-1.508-.308l.025.01.167-1.079.132-.07c.193.164.416.3.659.398l.016.006c.188.085.407.138.636.149h.004a.602.602 0 0 0 .422-.132l-.001.001a.387.387 0 0 0 .149-.298.402.402 0 0 0-.183-.332l-.002-.001a3.275 3.275 0 0 0-.557-.299l-.022-.008a6.974 6.974 0 0 1-.688-.368l.03.017a1.478 1.478 0 0 1-.444-.425l-.003-.005a1.103 1.103 0 0 1-.184-.65v.002-.012c0-.29.089-.559.24-.783l-.003.005c.165-.247.391-.442.657-.566l.01-.004a2.101 2.101 0 0 1 .968-.202h-.003zm6.14 0a2.003 2.003 0 0 1 1.578.614l.001.001a2.479 2.479 0 0 1 .561 1.763v-.008a2.712 2.712 0 0 1-.618 1.917l.004-.005a2.162 2.162 0 0 1-1.717.684h.006a1.977 1.977 0 0 1-1.577-.63l-.001-.001a2.613 2.613 0 0 1-.561-1.761v.006a2.677 2.677 0 0 1 .617-1.882l-.003.004a2.206 2.206 0 0 1 1.762-.658l-.008-.001zm-.105.965a.965.965 0 0 0-.565.142l.004-.002a.794.794 0 0 0-.297.433l-.001.006a2.687 2.687 0 0 0-.096.884V10c-.002.04-.002.087-.002.134 0 .304.036.6.104.883l-.005-.026a.88.88 0 0 0 .305.516l.002.001c.15.094.332.15.527.15l.045-.001h-.002a1.045 1.045 0 0 0 .576-.134l-.005.003a.79.79 0 0 0 .297-.451l.001-.005a3.01 3.01 0 0 0 .098-.77l-.002-.113v.005l.001-.094c0-.315-.036-.622-.103-.916l.005.027a.94.94 0 0 0-.306-.508l-.001-.001a1.003 1.003 0 0 0-.53-.15l-.052.001h.002zm7.526 2.386v1.518h-1.237l-1.702-2.921h-.07v2.921h-1.053l.053-1.412-.053-3.386h1.298l1.754 2.965h.07V7.694l1.105-.061-.167 3.298z"/><path fill="#fff" style="fill:var(--color3, #fff)" d="M36.105 8.316V9.43h1.439l.07.088-.079.877h-1.404v1.798h-1.237l.07-1.421-.07-3.368h3l.07.088-.088.877-1.158-.044zm4.711-1.018a2.062 2.062 0 0 1 1.587.614 2.509 2.509 0 0 1 .552 1.762v-.008a2.768 2.768 0 0 1-.61 1.918l.004-.005a2.188 2.188 0 0 1-1.762.675h.008a2.002 2.002 0 0 1-1.578-.622l-.001-.001a2.613 2.613 0 0 1-.552-1.761v.007a2.62 2.62 0 0 1 .608-1.881L39.069 8a2.177 2.177 0 0 1 1.763-.666l-.008-.001zm-.105.965-.034-.001c-.191 0-.37.052-.524.143l.005-.003a.787.787 0 0 0-.306.442l-.001.005a2.89 2.89 0 0 0-.097.837v-.004l-.001.098c0 .316.036.625.103.921l-.005-.028c.04.21.151.389.306.516l.002.001c.148.1.33.159.526.159l.056-.002h-.003a.965.965 0 0 0 .565-.142l-.004.002a.736.736 0 0 0 .297-.442l.001-.005a2.748 2.748 0 0 0 .096-.884v.007l.001-.099c0-.313-.036-.618-.103-.911l.005.027a.88.88 0 0 0-.305-.508l-.002-.001a.869.869 0 0 0-.582-.158h.003zm6.14 3.009-.079.877h-2.719l.061-1.421-.061-3.368h1.219l-.061 3.254v.544h1.526l.07.097zm3.754.009-.079.877h-2.719l.07-1.421-.07-3.368h1.228l-.061 3.254v.544h1.544l.088.114zm2.781-3.974a2.062 2.062 0 0 1 1.587.614 2.509 2.509 0 0 1 .552 1.762v-.008a2.768 2.768 0 0 1-.61 1.918l.004-.005a2.188 2.188 0 0 1-1.762.675h.008a2.002 2.002 0 0 1-1.578-.622l-.001-.001a2.613 2.613 0 0 1-.552-1.761v.007a2.62 2.62 0 0 1 .608-1.881l-.003.004a2.177 2.177 0 0 1 1.717-.666h-.006zm-.149.956-.034-.001c-.191 0-.37.052-.524.143l.005-.003a.787.787 0 0 0-.306.442l-.001.005a2.89 2.89 0 0 0-.097.837v-.004l-.001.098c0 .316.036.625.103.921l-.005-.028c.04.21.151.389.306.516l.002.001c.148.1.33.159.526.159l.056-.002h-.003a.965.965 0 0 0 .565-.142l-.004.002a.797.797 0 0 0 .306-.442l.001-.005a3.102 3.102 0 0 0 .087-.884v.006-.039c0-.325-.038-.642-.111-.945l.006.028a.88.88 0 0 0-.305-.508l-.002-.001a.872.872 0 0 0-.573-.157h.003zm7.895 3.904h-1.219l-.605-2.061h-.07l-.596 2.053h-1.281l-1.254-4.781h1.175l.07.649.693 2.912h.079l.702-2.421-.325-1.14h1.219l.105.772.719 2.789h.079l.807-2.842.123-.719h1.114l-1.482 4.781zm7.894-2.36v.693a1.584 1.584 0 0 1-.516 1.288l-.001.001a2.214 2.214 0 0 1-1.497.456h.006a2.058 2.058 0 0 1-1.434-.45l.004.003a1.582 1.582 0 0 1-.464-1.288l-.001.007v-3.14h1.272l-.053 2.974a1.034 1.034 0 0 0 .195.705l-.002-.003a.787.787 0 0 0 .626.219h-.003l.058.002a.874.874 0 0 0 .583-.222l-.001.001a.874.874 0 0 0 .193-.671v.004l-.053-3.009h1.228v2.43zm3.106-2.509c.465.003.908.096 1.313.263l-.023-.008-.123 1.009-.175.07a2.789 2.789 0 0 0-.568-.283l-.02-.006a1.439 1.439 0 0 0-.488-.105h-.003l-.028-.001a.599.599 0 0 0-.368.125l.001-.001a.357.357 0 0 0-.14.285v.005a.388.388 0 0 0 .183.315l.002.001c.161.106.349.208.544.296l.027.011c.266.117.488.235.701.365l-.025-.014c.178.115.326.258.444.425l.003.005c.116.173.185.386.185.614l-.001.036v-.002.014c0 .285-.085.551-.231.772l.003-.005a1.55 1.55 0 0 1-.657.549l-.01.004c-.28.133-.608.211-.954.211l-.048-.001h.002a4.002 4.002 0 0 1-1.509-.308l.027.01.167-1.079.132-.079c.193.167.416.305.659.406l.016.006c.188.083.408.134.638.14h.002a.643.643 0 0 0 .422-.124l-.002.001a.386.386 0 0 0 .001-.631l-.001-.001a3.745 3.745 0 0 0-.554-.306l-.025-.01a5.408 5.408 0 0 1-.682-.356l.024.014a1.608 1.608 0 0 1-.444-.425l-.003-.005a1.103 1.103 0 0 1-.184-.65v.002-.018a1.4 1.4 0 0 1 .24-.785l-.003.005c.163-.238.382-.427.639-.548l.01-.004c.274-.128.595-.202.933-.202h.034-.002zm6.14 0a2.028 2.028 0 0 1 1.579.614 2.511 2.511 0 0 1 .562 1.762v-.008a2.722 2.722 0 0 1-.618 1.917l.004-.005a2.153 2.153 0 0 1-1.717.675h.007a1.98 1.98 0 0 1-1.578-.622l-.001-.001a2.613 2.613 0 0 1-.561-1.761v.006a2.627 2.627 0 0 1 .617-1.881l-.003.004a2.177 2.177 0 0 1 1.763-.666l-.008-.001zm-.105.965-.037-.001c-.193 0-.374.052-.529.144l.005-.003a.806.806 0 0 0-.297.442l-.001.006a2.568 2.568 0 0 0-.096.839v-.006a3.729 3.729 0 0 0 .101 1.017l-.005-.025a.88.88 0 0 0 .305.516l.002.001c.147.1.328.159.523.159l.05-.001h-.002l.061.002a.974.974 0 0 0 .513-.145l-.004.002a.736.736 0 0 0 .297-.442l.001-.005c.062-.232.098-.499.098-.775l-.002-.108v.005l.001-.099c0-.313-.036-.618-.103-.911l.005.027a.88.88 0 0 0-.305-.508l-.002-.001a.938.938 0 0 0-.526-.159l-.056.002h.003zm7.526 2.386v1.518h-1.237l-1.702-2.965h-.07v2.965h-1.053l.053-1.412-.053-3.377h1.298l1.754 2.965h.07V7.422l1.105-.07-.167 3.298zM37.982 21.596l.105 2.719h-2.632l.132-2.456-.132-5.912h2.632l-.149 5.649zm9.141 0 .096 2.728h-2.816l-2.351-4.474h-.158v1.447l.105 3.026h-2.368l.132-2.456-.132-5.912h2.816l2.36 4.474h.149l-.079-4.386 2.386-.149-.167 5.693zm4.772-5.789a6.896 6.896 0 0 1 2.477.463l-.047-.016-.412 2.105-.36.158a5.678 5.678 0 0 0-1.039-.513l-.04-.013a2.463 2.463 0 0 0-.872-.193h-.005a.82.82 0 0 0-.477.116l.004-.002a.36.36 0 0 0-.175.307.5.5 0 0 0 .261.42l.003.001c.243.15.531.303.829.437l.048.019c.481.212.872.415 1.251.637l-.058-.031a2.8 2.8 0 0 1 .81.755l.006.008c.22.319.352.713.352 1.138l-.001.058v-.003.021a2.47 2.47 0 0 1-.444 1.417l.005-.008c-.311.44-.725.787-1.209 1.01l-.019.008a4.361 4.361 0 0 1-1.792.378l-.08-.001h.004a8.688 8.688 0 0 1-2.824-.51l.06.019.377-2.254.254-.149a5.31 5.31 0 0 0 1.236.698l.036.013c.332.153.718.251 1.124.272h.008a.877.877 0 0 0 .531-.125l-.004.002a.387.387 0 0 0 .158-.307.528.528 0 0 0-.269-.455l-.003-.001a5.559 5.559 0 0 0-.84-.45l-.038-.015a9.339 9.339 0 0 1-1.21-.612l.043.024a2.643 2.643 0 0 1-.792-.754l-.006-.009a2.055 2.055 0 0 1-.334-1.131l.001-.066v.003-.019c0-.542.164-1.046.445-1.464l-.006.009a3.045 3.045 0 0 1 1.209-1.018l.019-.008a4.124 4.124 0 0 1 1.719-.369h.037-.002zm9.298.333-.14 1.886-1.754-.079h-.149l-.07 3.658.105 2.719h-2.544l.132-2.456-.026-3.93h-.167l-1.754.079-.149-.184.14-1.886h6.246l.14.184zm7.386 8.185h-2.632l-.228-1.386h-1.263l-1.061.053-.219 1.395h-2.544l2.535-8.368h3.123l2.289 8.368zm-3.254-3.307-.57-2.719h-.114l-.719 2.746h1.447zm7.982-5.202.141-.001a6.85 6.85 0 0 1 2.319.402l-.048-.015-.553 2.281h-.202a7.956 7.956 0 0 0-1.064-.448l-.059-.017a3.437 3.437 0 0 0-.983-.141h-.045.002a1.752 1.752 0 0 0-.887.197l.01-.005c-.23.159-.395.399-.455.677l-.001.007c-.096.38-.151.815-.151 1.264l.002.165v-.008a5.456 5.456 0 0 0 .157 1.485l-.008-.038c.062.294.238.539.478.69l.004.003a1.878 1.878 0 0 0 .998.201h-.006c.168-.005.328-.024.483-.056l-.018.003v-1.825l2.368-.167v3.43a8.282 8.282 0 0 1-2.988.57h-.003a4.03 4.03 0 0 1-3.064-1.081l.002.002a4.259 4.259 0 0 1-1.035-3.101l-.001.013a4.372 4.372 0 0 1 1.22-3.352l-.001.001a4.914 4.914 0 0 1 3.524-1.148l-.015-.001zm8.965 5.202c.623.965 1.237 1.86 1.86 2.693v.281c-.774.25-1.671.422-2.6.481l-.032.002-.246-.211-.149-.325a29.003 29.003 0 0 1-.956-2.123h-.877l.088 2.491h-2.632l.132-2.456-.132-5.912h3.965a3.172 3.172 0 0 1 2.182.672l-.007-.005a2.391 2.391 0 0 1 .763 1.929v-.008.008c0 .504-.137.977-.375 1.382l.007-.013a3.48 3.48 0 0 1-.981 1.107l-.01.007zm-1.333-2.237a1.04 1.04 0 0 0-.264-.773l.001.001a1.308 1.308 0 0 0-.881-.272h.004-.465l-.053 2.158.939.053a1.2 1.2 0 0 0 .532-.443l.003-.004c.106-.199.168-.435.168-.686l-.002-.072v.003zm11.096 5.535h-2.632l-.202-1.386h-1.272l-1.053.053-.228 1.395h-2.561l2.526-8.368h3.132l2.289 8.368zm-3.254-3.307-.57-2.711h-.158l-.719 2.746h1.447zm13.307 3.307h-2.272l-.088-2.509-.14-2.105h-.158l-1.325 3.86h-1.956l-1.105-3.851h-.158l-.184 1.86-.132 2.781h-2.158l.816-8.368h2.991l.246 1.193.737 3.035h.149l.816-2.947.298-1.281h2.947l.675 8.368z"/><path fill="#821864" style="fill:var(--color4, #821864)" d="M.947 28.026c.002.573.236 1.091.614 1.465a2.02 2.02 0 0 0 1.445.605h102.988c.565 0 1.077-.232 1.444-.605.378-.374.612-.892.614-1.465l.342-25.377v25.377a2.412 2.412 0 0 1-2.412 2.412H3.017a2.412 2.412 0 0 1-2.412-2.412V2.649l.342 25.377z"/><path fill="#fff" style="fill:var(--color3, #fff)" d="M14.509 7.895h-3.097a5.746 5.746 0 0 0-1.864.364l.04-.013a3.739 3.739 0 0 0-1.333.876l-.001.001a3.753 3.753 0 0 0-.868 1.308l-.009.025a5.37 5.37 0 0 0-.342 1.82v.004c0 .798-.053 1.053-.053 3.097s0 2.289.053 3.096a5.56 5.56 0 0 0 .355 1.863l-.013-.038a3.893 3.893 0 0 0 2.176 2.184l.026.009a5.36 5.36 0 0 0 1.819.351h.005c.798 0 1.053.044 3.097.044s2.289 0 3.096-.044a5.537 5.537 0 0 0 1.863-.364l-.038.013a3.91 3.91 0 0 0 2.184-2.167l.009-.026c.209-.54.336-1.165.351-1.818v-.006c0-.807.044-1.061.044-3.096s0-2.298-.044-3.096a5.448 5.448 0 0 0-.319-1.828l.012.038a3.897 3.897 0 0 0-2.167-2.193l-.026-.009a5.686 5.686 0 0 0-1.816-.351h-3.105zm-.676 1.359h.675c2 0 2.246 0 3.035.044l.068-.001c.476 0 .932.084 1.355.237l-.028-.009c.343.126.637.318.877.561.246.239.438.533.556.861l.005.016c.161.414.257.892.263 1.392v.002c0 .789.044 1.026.044 3.026s0 2.246-.044 3.035a4.064 4.064 0 0 1-.273 1.423l.009-.028a2.296 2.296 0 0 1-.561.877h-.001a2.363 2.363 0 0 1-.861.556l-.016.005a3.877 3.877 0 0 1-1.395.254h-6.07a4.11 4.11 0 0 1-1.423-.264l.028.009a2.48 2.48 0 0 1-1.424-1.413l-.006-.017a3.848 3.848 0 0 1-.254-1.389v-.006c0-.789-.044-1.026-.044-3.035s0-2.237.044-3.035c.006-.502.099-.981.264-1.424l-.01.029c.126-.344.318-.636.561-.877.239-.246.533-.438.861-.556l.016-.005a4.004 4.004 0 0 1 1.392-.263h.002c.693 0 .956 0 2.36-.044zm4.685 1.246a.877.877 0 1 0 .877.877.877.877 0 0 0-.877-.877zm-4.009 1.053a3.86 3.86 0 1 0 3.86 3.86 3.86 3.86 0 0 0-3.86-3.86zm0 1.35h.009a2.509 2.509 0 1 1-2.509 2.509 2.509 2.509 0 0 1 2.509-2.509z"/></symbol><symbol id="icon-find-us-on-facebook" viewBox="0 0 115 32"><path fill="#0866ff" style="fill:var(--color5, #0866ff)" d="M112.106 0H2.379A2.384 2.384 0 0 0 0 2.379v27.242A2.384 2.384 0 0 0 2.379 32h109.727a2.384 2.384 0 0 0 2.379-2.379V2.379A2.384 2.384 0 0 0 112.106 0z"/><path fill="#075ce6" style="fill:var(--color6, #075ce6)" d="M28.61 31.166V0h1.559v31.166zm11.187-12.508-.04 1.592h.935l1.592-.04.152.192-.165 2.003-1.771-.04h-.796v.179l.11 2.884h-2.761l.139-2.609-.139-6.277h5.932l.152.192-.179 2.003-2.198-.081h-.962zm11.167 6.77h-2.788l-.248-1.471-.013-.04-1.346-.027-1.125.054-.235 1.485h-2.692l2.692-8.886h3.325l2.431 8.886zm-3.462-3.517L46.898 19h-.165l-.769 2.911.769.013.769-.013zm8.158-5.521c.789 0 1.529.123 2.225.371l-.465 2.185-.179.11a3.42 3.42 0 0 0-.825-.309 3.578 3.578 0 0 0-.865-.119c-.559 0-.962.163-1.207.487-.248.326-.371.868-.371 1.628 0 .888.141 1.536.425 1.943s.729.613 1.333.613c.257 0 .543-.027.859-.076.315-.051.593-.121.832-.212l.219.136-.219 2.171c-.55.172-1.187.259-1.91.259-1.474 0-2.585-.385-3.332-1.154-.745-.769-1.118-1.889-1.118-3.363 0-1.485.4-2.634 1.201-3.448.803-.814 1.934-1.223 3.399-1.223zm9.326 6.84.15.192-.163 2.006H58.71l.136-2.609-.136-6.277h6.373l.15.192-.179 2.003-2.182-.081h-1.415l-.027 1.25h1.359l1.429-.043.15.192-.163 2.006-1.594-.043h-1.237l-.013.523.029.769h1.317l2.281-.083zm6.977-2.377c.577.165.995.411 1.257.736s.391.749.391 1.27c0 .926-.378 1.601-1.134 2.026s-1.883.64-3.385.64a55.5 55.5 0 0 1-2.952-.096l.136-2.609-.136-6.277 3.969-.013c1.006 0 1.793.195 2.361.584s.852.953.852 1.695c0 .458-.116.863-.351 1.216-.233.353-.57.628-1.008.83zm-1.443-1.648c0-.32-.112-.541-.335-.666-.226-.123-.644-.186-1.259-.186h-.123l-.054 1.813 1.029.043c.257-.083.445-.201.563-.358s.179-.371.179-.646zm-.905 4.506c.373 0 .671-.083.885-.248.215-.163.322-.402.322-.713 0-.21-.063-.38-.186-.508-.123-.13-.322-.239-.597-.331l-1.333.029-.013.604.043 1.111c.456.038.749.056.879.056zm9.022-7.334c1.29 0 2.287.382 2.994 1.147.704.765 1.058 1.843 1.058 3.233 0 1.538-.387 2.73-1.16 3.571-.774.843-1.872 1.263-3.289 1.263-1.292 0-2.29-.387-2.994-1.16s-1.058-1.869-1.058-3.289c0-1.518.387-2.694 1.16-3.522.774-.83 1.869-1.243 3.289-1.243zm-.248 2.198c-.356 0-.626.06-.809.186-.183.123-.313.34-.391.651-.078.313-.116.765-.116 1.362 0 .758.04 1.335.123 1.728s.221.669.418.825c.197.157.487.233.872.233.358 0 .628-.06.812-.186.183-.123.313-.342.391-.657.076-.318.116-.771.116-1.366 0-.751-.04-1.324-.123-1.717s-.224-.669-.42-.825c-.197-.154-.487-.233-.872-.233zm9.217-2.198c1.29 0 2.287.382 2.992 1.147.707.765 1.058 1.843 1.058 3.233 0 1.538-.387 2.73-1.16 3.571-.771.843-1.869 1.263-3.289 1.263-1.29 0-2.287-.387-2.992-1.16-.707-.774-1.058-1.869-1.058-3.289 0-1.518.387-2.694 1.16-3.522.774-.83 1.869-1.243 3.289-1.243zm-.248 2.198c-.358 0-.628.06-.812.186-.181.123-.313.34-.389.651-.078.313-.118.765-.118 1.362 0 .758.043 1.335.125 1.728.081.394.221.669.418.825s.487.233.872.233c.358 0 .626-.06.809-.186.183-.123.315-.342.391-.657.078-.318.118-.771.118-1.366 0-.751-.043-1.324-.125-1.717-.081-.394-.221-.669-.418-.825-.197-.154-.487-.233-.872-.233zm10.382 2.169a61.766 61.766 0 0 0 2.885 4.108l-.04.302c-.962.21-1.878.356-2.748.438l-.302-.163a129.475 129.475 0 0 1-2.294-4.079l-.027 1.194.11 2.884h-2.759l.136-2.609-.136-6.277h2.802l-.096 3.707 1.702-2.746.467-.962h2.911l-2.609 4.202z"/><path fill="#fff" style="fill:var(--color3, #fff)" d="m39.797 18.255-.04 1.594h.935l1.592-.043.152.192-.165 2.006-1.771-.043h-.796v.179l.11 2.884h-2.761l.139-2.609-.139-6.277h5.932l.152.192-.179 2.006-2.198-.083h-.962zm11.167 6.771h-2.788l-.248-1.469-.013-.04-1.346-.029-1.125.056-.235 1.482h-2.692l2.692-8.886h3.325l2.431 8.886zm-3.462-3.515-.604-2.911h-.165l-.769 2.911.769.013.769-.013zm8.158-5.521c.789 0 1.529.123 2.225.371l-.465 2.182-.179.11c-.239-.127-.514-.23-.825-.309s-.599-.116-.865-.116c-.559 0-.962.161-1.207.487-.248.324-.371.868-.371 1.628 0 .888.141 1.534.425 1.943.284.407.729.61 1.333.61.257 0 .543-.025.859-.076a4.13 4.13 0 0 0 .832-.212l.219.136-.219 2.171c-.55.174-1.187.262-1.91.262-1.474 0-2.585-.385-3.332-1.154-.745-.769-1.118-1.892-1.118-3.365 0-1.483.4-2.632 1.201-3.448.803-.814 1.934-1.221 3.399-1.221zm9.326 6.838.15.192-.163 2.006H58.71l.136-2.609-.136-6.277h6.373l.15.192-.179 2.006-2.182-.083h-1.415l-.027 1.25h1.359l1.429-.04.15.19-.163 2.006-1.594-.04h-1.237l-.013.521.029.769h1.317l2.281-.083zm6.977-2.375c.577.163.995.409 1.257.733.262.326.391.749.391 1.27 0 .926-.378 1.601-1.134 2.026-.756.427-1.883.639-3.385.639a52.48 52.48 0 0 1-2.952-.096l.136-2.609-.136-6.277 3.969-.013c1.006 0 1.793.195 2.361.584s.852.955.852 1.697c0 .456-.116.863-.351 1.214-.233.353-.57.631-1.008.832zm-1.443-1.648c0-.322-.112-.543-.335-.666-.226-.123-.644-.186-1.259-.186h-.123l-.054 1.813 1.029.04c.257-.083.445-.201.563-.358.118-.154.179-.369.179-.644zm-.905 4.503c.373 0 .671-.081.885-.246s.322-.402.322-.716c0-.21-.063-.38-.186-.508s-.322-.237-.597-.329l-1.333.027-.013.604.043 1.114c.456.036.749.054.879.054zm9.022-7.331c1.29 0 2.287.382 2.994 1.145.704.765 1.058 1.843 1.058 3.236 0 1.538-.387 2.728-1.16 3.571-.774.841-1.872 1.263-3.289 1.263-1.292 0-2.29-.387-2.994-1.16s-1.058-1.872-1.058-3.289c0-1.52.387-2.694 1.16-3.524.774-.827 1.869-1.241 3.289-1.241zm-.248 2.195c-.356 0-.626.063-.809.186s-.313.342-.391.653c-.078.311-.116.765-.116 1.36 0 .76.04 1.337.123 1.731s.221.669.418.823c.197.157.487.235.872.235.358 0 .628-.063.812-.186.183-.125.313-.344.391-.66.076-.315.116-.771.116-1.366 0-.751-.04-1.324-.123-1.717s-.224-.669-.42-.823c-.197-.157-.487-.235-.872-.235zm9.217-2.195c1.29 0 2.287.382 2.992 1.145.707.765 1.058 1.843 1.058 3.236 0 1.538-.387 2.728-1.16 3.571-.771.841-1.869 1.263-3.289 1.263-1.29 0-2.287-.387-2.992-1.16-.707-.774-1.058-1.872-1.058-3.289 0-1.52.387-2.694 1.16-3.524.774-.827 1.869-1.241 3.289-1.241zm-.248 2.195c-.358 0-.628.063-.812.186-.181.123-.313.342-.389.653-.078.311-.118.765-.118 1.36 0 .76.043 1.337.125 1.731.081.394.221.669.418.823.197.157.487.235.872.235.358 0 .626-.063.809-.186.183-.125.315-.344.391-.66.078-.315.118-.771.118-1.366 0-.751-.043-1.324-.125-1.717-.081-.394-.221-.669-.418-.823-.197-.157-.487-.235-.872-.235zm10.382 2.171a62.001 62.001 0 0 0 2.885 4.105l-.04.302a23.3 23.3 0 0 1-2.748.441l-.302-.165a127.25 127.25 0 0 1-2.294-4.079l-.027 1.194.11 2.884h-2.759l.136-2.609-.136-6.277h2.802l-.096 3.71 1.702-2.748.467-.962h2.911l-2.609 4.204z"/><path fill="#233b6e" style="fill:var(--color7, #233b6e)" d="M.367 28.97c0 .604.246 1.154.644 1.55a2.18 2.18 0 0 0 1.552.646h109.36a2.196 2.196 0 0 0 2.196-2.195l.367-26.956v26.956c0 .704-.288 1.346-.751 1.809a2.552 2.552 0 0 1-1.811.754H2.564a2.554 2.554 0 0 1-1.811-.754 2.547 2.547 0 0 1-.751-1.809V2.015l.367 26.956z"/><path fill="#075ce6" style="fill:var(--color6, #075ce6)" d="m38.16 8.79-.025.939h.55l.939-.025.087.114-.096 1.181-1.044-.025h-.47v.105l.065 1.702H36.54l.081-1.538-.081-3.701h3.495l.089.114-.105 1.183-1.295-.049h-.566zm3.835 2.29.065 1.702h-1.626l.081-1.538-.081-3.701h1.65l-.089 3.537zm5.771-.007.065 1.708h-1.764l-1.474-2.802h-.096l-.009.906.065 1.896h-1.474l.081-1.538-.081-3.701h1.764l1.474 2.802h.098L46.366 7.6l1.489-.089-.089 3.562zm3.424-3.562c.771 0 1.364.21 1.778.628s.619 1.02.619 1.807c0 .935-.242 1.652-.72 2.153-.481.503-1.169.754-2.064.754-.561 0-1.221-.025-1.977-.072l.081-1.538-.081-3.701 2.364-.031zm-.081 4.137c.255 0 .447-.101.579-.304s.199-.534.199-.999c0-.394-.027-.704-.083-.93-.054-.228-.139-.391-.259-.49-.116-.101-.282-.15-.492-.15a6.11 6.11 0 0 0-.608.031l-.056 2.274.016.503c.324.043.559.065.704.065zm8.564-1.449-.009.834c-.004.593-.206 1.049-.599 1.366-.394.32-.957.479-1.69.479-.707 0-1.248-.159-1.623-.479-.376-.318-.555-.774-.539-1.366l.025-.834-.049-2.656h1.628l-.074 3.271c-.004.275.049.474.159.599.11.123.291.186.539.186.253 0 .436-.063.55-.186.114-.125.168-.324.161-.599l-.072-3.271h1.65l-.056 2.656zm2.898-2.753c.512 0 1.02.094 1.52.284l-.259 1.319-.226.096c-.226-.139-.449-.25-.671-.331s-.4-.123-.534-.123a.526.526 0 0 0-.297.074.225.225 0 0 0-.107.195c0 .103.054.19.165.264.11.072.295.168.555.286.302.134.55.262.745.376.195.116.364.277.51.479.145.203.219.452.219.749 0 .329-.092.626-.273.894a1.864 1.864 0 0 1-.771.635c-.335.157-.724.235-1.167.235a5.36 5.36 0 0 1-1.731-.309l.235-1.406.161-.098c.248.19.514.34.798.449.282.112.519.165.707.165.152 0 .262-.025.329-.076s.101-.114.101-.19c0-.114-.058-.21-.174-.288a3.613 3.613 0 0 0-.561-.286 6.42 6.42 0 0 1-.733-.369 1.612 1.612 0 0 1-.496-.479c-.141-.201-.21-.452-.21-.747 0-.34.092-.646.275-.919s.438-.487.767-.644a2.59 2.59 0 0 1 1.127-.235zm5.657 0c.76 0 1.348.226 1.764.675.416.452.624 1.087.624 1.907 0 .906-.228 1.608-.684 2.104s-1.102.745-1.939.745c-.76 0-1.348-.228-1.764-.684s-.624-1.102-.624-1.939c0-.894.228-1.588.684-2.075.456-.49 1.102-.733 1.939-.733zm-.145 1.295c-.212 0-.371.038-.478.11-.107.074-.186.201-.23.385-.047.183-.069.452-.069.8 0 .449.025.789.074 1.02.047.233.13.396.246.487s.288.136.514.136c.21 0 .369-.036.478-.107.107-.074.183-.203.23-.389.045-.188.067-.456.067-.805 0-.443-.022-.78-.072-1.013s-.13-.394-.246-.485c-.116-.092-.288-.139-.514-.139zm7.755 2.332.063 1.708h-1.764l-1.471-2.802h-.098l-.007.906.063 1.896h-1.471l.081-1.538-.081-3.701h1.764l1.471 2.802h.098L74.437 7.6l1.489-.089-.087 3.562z"/><path fill="#fff" style="fill:var(--color3, #fff)" d="m37.932 8.515-.025.939h.552l.939-.025.087.114-.096 1.183-1.044-.025h-.47v.105l.065 1.699h-1.628l.081-1.538-.081-3.698h3.497l.089.114-.105 1.181-1.295-.049h-.568zm3.837 2.292.065 1.699h-1.628l.083-1.538-.083-3.698h1.652l-.089 3.537zm5.772-.009.065 1.708h-1.764l-1.474-2.802h-.096l-.009.908.065 1.894h-1.474l.081-1.538-.081-3.698h1.764l1.474 2.8h.096l-.047-2.744 1.489-.089-.089 3.562zm3.423-3.562c.771 0 1.364.21 1.778.628.411.418.619 1.022.619 1.809 0 .932-.242 1.65-.722 2.153-.478.501-1.167.751-2.064.751-.561 0-1.219-.025-1.974-.072l.081-1.538-.081-3.698 2.364-.034zm-.081 4.137a.65.65 0 0 0 .579-.304c.132-.201.197-.534.197-.999 0-.394-.027-.702-.081-.93-.054-.226-.141-.389-.259-.49s-.282-.15-.492-.15c-.206 0-.409.011-.608.034l-.056 2.274.016.501c.324.043.559.065.704.065zm8.564-1.449-.009.834c-.007.593-.206 1.049-.599 1.368-.394.318-.957.476-1.69.476-.709 0-1.25-.159-1.623-.476-.376-.32-.555-.776-.539-1.368l.025-.834-.049-2.654h1.628l-.074 3.269c-.004.275.047.476.159.599.11.125.288.186.537.186.255 0 .438-.06.552-.186.112-.123.165-.324.161-.599l-.074-3.269h1.652l-.056 2.654zm2.896-2.753c.514 0 1.02.096 1.523.284l-.259 1.319-.226.098c-.228-.141-.452-.253-.673-.333s-.398-.121-.534-.121a.543.543 0 0 0-.295.072.225.225 0 0 0-.107.195c0 .103.054.19.165.264.11.074.295.168.552.288.304.134.552.259.747.376.192.116.362.275.51.476.145.203.217.452.217.749 0 .329-.089.628-.271.894a1.84 1.84 0 0 1-.774.635c-.333.157-.722.235-1.165.235a5.4 5.4 0 0 1-1.733-.306l.237-1.409.161-.096c.248.188.514.338.796.447.284.112.521.168.709.168.152 0 .259-.027.329-.078a.23.23 0 0 0 .101-.19c0-.114-.058-.208-.174-.286s-.302-.174-.561-.288a6.42 6.42 0 0 1-.733-.369 1.59 1.59 0 0 1-.496-.476 1.28 1.28 0 0 1-.212-.749c0-.34.092-.646.275-.919s.441-.487.769-.644a2.581 2.581 0 0 1 1.125-.235zm5.657 0c.763 0 1.351.226 1.766.678.414.449.622 1.084.622 1.905 0 .908-.228 1.608-.684 2.104-.454.496-1.1.745-1.936.745-.763 0-1.351-.228-1.766-.682-.414-.456-.622-1.102-.622-1.941 0-.894.228-1.588.684-2.075.454-.487 1.102-.733 1.936-.733zm-.145 1.297c-.21 0-.369.036-.476.107-.107.074-.186.201-.23.385-.047.186-.069.452-.069.803 0 .447.025.787.072 1.02.049.233.132.394.248.485s.286.139.514.139c.21 0 .369-.038.476-.11.107-.074.186-.203.233-.389.045-.186.067-.454.067-.805 0-.443-.025-.78-.072-1.013-.049-.23-.132-.394-.248-.485s-.286-.136-.514-.136zm7.755 2.33.065 1.708h-1.764l-1.474-2.802h-.096l-.009.908.065 1.894h-1.474l.081-1.538-.081-3.698h1.766l1.471 2.8h.098l-.049-2.744 1.489-.089-.089 3.562zm-51.859 5.234c0-4.964-4.023-8.987-8.987-8.987s-8.987 4.023-8.987 8.987a8.99 8.99 0 0 0 6.815 8.723v-5.977h-1.854v-2.746h1.854v-1.183c0-3.059 1.384-4.477 4.387-4.477.57 0 1.552.112 1.954.224v2.489a11.614 11.614 0 0 0-1.038-.034c-1.474 0-2.044.559-2.044 2.01v.97h2.936l-.505 2.746h-2.431v6.176a8.988 8.988 0 0 0 7.898-8.922z"/></symbol><symbol id="icon-follow-us-on-youtube" viewBox="0 0 110 32"><path fill="red" style="fill:var(--color8, #f00)" d="M107.714 0H2.378A2.384 2.384 0 0 0-.001 2.379v27.244a2.384 2.384 0 0 0 2.379 2.378h105.336a2.384 2.384 0 0 0 2.378-2.378V2.379A2.384 2.384 0 0 0 107.714 0z"/><path fill="#db0000" style="fill:var(--color9, #db0000)" d="M28.611 31.165V0h1.559v31.165h-1.559z"/><path fill="#c20000" style="fill:var(--color10, #c20000)" d="m42.574 23.093.11 2.334h-2.747l.137-2.334-.013-.427-2.844-6.125h2.885l.219.742 1.003 2.677h.165l1.154-2.581.316-.839h2.802l-3.159 6.03-.028.523zm6.977-6.717c1.291 0 2.289.383 2.994 1.147s1.057 1.843 1.057 3.233c0 1.54-.387 2.73-1.16 3.571-.774.843-1.87 1.265-3.29 1.265-1.291 0-2.289-.389-2.994-1.162s-1.057-1.871-1.057-3.29c0-1.519.387-2.695 1.16-3.523s1.871-1.242 3.29-1.242zm-.247 2.197c-.357 0-.627.063-.811.185-.183.125-.314.341-.392.653s-.116.765-.116 1.36c0 .762.041 1.337.124 1.731s.222.668.419.824.487.235.873.235c.357 0 .627-.063.81-.185.183-.125.314-.343.392-.659s.116-.771.116-1.366c0-.751-.041-1.323-.124-1.717s-.222-.668-.419-.824c-.196-.158-.487-.237-.872-.237zm12.774 2.472-.014 1.416c-.009 1.006-.349 1.781-1.017 2.32-.667.541-1.624.812-2.871.812-1.2 0-2.117-.271-2.753-.812s-.941-1.314-.914-2.32l.041-1.416-.082-4.504h2.76l-.124 5.549c-.009.467.08.805.268 1.017.188.21.493.315.914.315.43 0 .742-.105.934-.315s.283-.549.274-1.017l-.124-5.549h2.802l-.096 4.504zm7.774-4.312-.151 2.006-1.812-.082h-.166l-.068 3.887.109 2.884h-2.747l.137-2.609-.069-4.162h-.178l-1.827.082-.165-.193.151-2.005H69.7l.151.192zm8.324 4.312-.014 1.416c-.009 1.006-.348 1.781-1.016 2.32-.669.541-1.625.812-2.871.812-1.201 0-2.118-.271-2.754-.812s-.941-1.314-.914-2.32l.041-1.416-.082-4.504h2.76l-.124 5.549c-.009.467.081.805.268 1.017.188.21.493.315.914.315.43 0 .742-.105.934-.315s.284-.549.276-1.017l-.124-5.549h2.802l-.096 4.504zm7.376-.192c.577.167.995.411 1.256.736.262.323.392.747.392 1.269 0 .925-.378 1.601-1.133 2.027-.755.427-1.885.639-3.386.639-.833 0-1.817-.031-2.953-.096l.137-2.609-.137-6.277 3.97-.014c1.007 0 1.795.194 2.363.584s.852.953.852 1.696c0 .459-.117.863-.351 1.216s-.57.629-1.01.83zm-1.442-1.648c0-.32-.112-.542-.337-.665-.224-.125-.643-.185-1.256-.185h-.124l-.056 1.812 1.029.042c.256-.084.444-.203.564-.358s.179-.372.179-.646zm-.907 4.506c.375 0 .67-.082.885-.246s.323-.402.323-.714c0-.211-.061-.38-.185-.509s-.323-.238-.598-.329l-1.331.026-.014.606.041 1.113c.458.036.752.054.88.054zm11.442-.481.151.193-.166 2.005h-6.263l.138-2.609-.138-6.277h6.374l.151.192-.179 2.006-2.184-.082h-1.415l-.027 1.25h1.36l1.429-.042.151.193-.165 2.005-1.593-.04h-1.236l-.013.521.027.77h1.319l2.28-.083zM38.805 8.328l-.023 1.184h.639l.883-.023.071.094-.079.947-.97-.023h-.56l-.008.276.047 1.633h-1.287l.071-1.508-.071-3.583h3.188l.071.095-.087.947-1.231-.047-.654.009zm5.004-1.082c.727 0 1.287.217 1.681.651s.592 1.051.592 1.85c0 .874-.216 1.55-.648 2.032s-1.039.722-1.822.722c-.721 0-1.279-.222-1.673-.667s-.592-1.074-.592-1.89c0-.863.214-1.528.643-1.996s1.035-.703 1.819-.703zm-.11 1.026c-.247 0-.444.048-.592.146s-.255.255-.323.474c-.069.219-.103.514-.103.888 0 .447.034.798.103 1.054s.177.438.327.548.354.166.612.166c.253 0 .452-.049.599-.146s.254-.256.319-.478c.066-.22.099-.523.099-.908 0-.442-.034-.789-.102-1.042s-.176-.433-.323-.541c-.147-.107-.352-.161-.615-.161zm6.496 3.189-.087.955h-2.864l.071-1.508-.071-3.583h1.302l-.071 3.457.023.584h1.618l.079.095zm3.995 0-.087.955h-2.864l.071-1.508-.071-3.583h1.302l-.071 3.457.023.584h1.618l.079.095zm2.953-4.215c.727 0 1.287.217 1.681.651s.591 1.051.591 1.85c0 .874-.215 1.55-.647 2.032s-1.039.722-1.822.722c-.721 0-1.279-.222-1.674-.667s-.591-1.074-.591-1.89c0-.863.214-1.528.643-1.996s1.035-.703 1.819-.703zm-.11 1.026c-.247 0-.444.048-.592.146s-.254.255-.323.474c-.068.219-.101.514-.101.888 0 .447.033.798.101 1.054s.177.438.328.548c.15.111.354.166.612.166.252 0 .452-.049.599-.146s.254-.256.319-.478c.066-.22.099-.523.099-.908 0-.442-.034-.789-.102-1.042s-.176-.433-.323-.541c-.147-.107-.353-.161-.615-.161zm8.406 4.143H64.09l-.639-2.194h-.08l-.631 2.194h-1.357l-1.333-5.09h1.247l.079.694.733 3.093h.08l.75-2.572-.316-1.215h1.294l.11.822.765 2.966h.079l.86-3.022.134-.765h1.183l-1.608 5.089zm8.408-2.509-.008.734c.006.595-.177 1.053-.547 1.373s-.899.481-1.583.481c-.662 0-1.169-.158-1.519-.473s-.517-.768-.502-1.357l.017-.773-.032-2.565h1.278l-.056 3.164c-.005.336.063.583.205.742s.363.237.663.237c.305 0 .529-.077.675-.233s.214-.393.209-.714l-.056-3.196h1.303l-.047 2.58zm3.301-2.66c.452 0 .91.09 1.373.268l-.205 1.073-.19.071c-.2-.132-.4-.234-.599-.308s-.374-.11-.521-.11c-.173 0-.312.043-.414.13s-.154.188-.154.304c0 .132.064.243.194.335s.333.202.612.328c.295.137.533.262.714.374s.34.264.473.453c.134.189.202.421.202.694 0 .306-.082.581-.248.829s-.4.444-.706.588-.657.217-1.057.217a4.19 4.19 0 0 1-1.579-.315l.181-1.144.134-.079c.22.184.461.327.722.43s.485.154.675.154c.2 0 .351-.045.454-.134s.153-.194.153-.316c0-.142-.065-.261-.197-.355s-.337-.205-.616-.332c-.283-.131-.516-.254-.698-.367s-.338-.264-.469-.453a1.19 1.19 0 0 1-.197-.694c0-.311.083-.59.248-.84.167-.25.397-.446.694-.588s.64-.211 1.023-.211zm6.537 0c.727 0 1.287.217 1.681.651s.592 1.051.592 1.85c0 .874-.216 1.55-.648 2.032s-1.038.722-1.822.722c-.721 0-1.278-.222-1.673-.667s-.591-1.074-.591-1.89c0-.863.213-1.528.642-1.996s1.036-.703 1.819-.703zm-.11 1.026c-.246 0-.444.048-.591.146s-.255.255-.323.474-.102.514-.102.888c0 .447.034.798.102 1.054s.177.438.327.548.354.166.612.166c.253 0 .452-.049.6-.146s.254-.256.319-.478c.065-.22.099-.523.099-.908 0-.442-.035-.789-.103-1.042s-.176-.433-.323-.541c-.147-.107-.352-.161-.615-.161zm7.934 2.534.047 1.61h-1.39l-1.807-3.149h-.079l-.008 1.357.047 1.792h-1.16l.063-1.499-.063-3.591h1.381l1.815 3.149h.079l-.031-3.101 1.176-.072-.071 3.503z"/><path fill="#fff" style="fill:var(--color3, #fff)" d="m38.805 8.035-.023 1.184h.639l.883-.023.071.094-.079.947-.97-.023h-.56l-.008.276.047 1.633h-1.287l.071-1.507-.071-3.583h3.188l.071.095-.087.947-1.231-.047-.654.008zm5.004-1.082c.727 0 1.287.217 1.681.651s.592 1.051.592 1.85c0 .874-.216 1.55-.648 2.032s-1.039.722-1.822.722c-.721 0-1.279-.222-1.673-.667s-.592-1.074-.592-1.89c0-.863.214-1.528.643-1.996.429-.469 1.035-.703 1.819-.703zm-.11 1.026c-.247 0-.444.048-.592.146s-.255.255-.323.474c-.069.219-.103.514-.103.888 0 .447.034.798.103 1.054s.177.438.327.548.354.166.612.166c.253 0 .452-.049.599-.146s.254-.256.319-.478c.066-.221.099-.523.099-.908 0-.442-.034-.789-.102-1.042s-.176-.433-.323-.541c-.147-.107-.352-.161-.615-.161zm6.496 3.188-.087.955h-2.864l.071-1.507-.071-3.583h1.302l-.071 3.457.023.584h1.618l.079.094zm3.995 0-.087.955h-2.864l.071-1.507-.071-3.583h1.302l-.071 3.457.023.584h1.618l.079.094zm2.953-4.214c.727 0 1.287.217 1.681.651s.591 1.051.591 1.85c0 .874-.215 1.55-.647 2.032s-1.039.722-1.822.722c-.721 0-1.279-.222-1.674-.667s-.591-1.074-.591-1.89c0-.863.214-1.528.643-1.996.428-.469 1.035-.703 1.819-.703zm-.11 1.026c-.247 0-.444.048-.592.146s-.254.255-.323.474c-.068.219-.101.514-.101.888 0 .447.033.798.101 1.054s.177.438.328.548c.15.111.354.166.612.166.252 0 .452-.049.599-.146s.254-.256.319-.478c.066-.221.099-.523.099-.908 0-.442-.034-.789-.102-1.042s-.176-.433-.323-.541c-.147-.107-.353-.161-.615-.161zm8.406 4.143H64.09l-.639-2.194h-.08l-.631 2.194h-1.357l-1.333-5.09h1.247l.079.694.733 3.094h.08l.75-2.573-.316-1.215h1.294l.11.822.765 2.967h.079l.86-3.023.134-.765h1.183l-1.608 5.089zm8.408-2.51-.008.734c.006.595-.177 1.053-.547 1.373s-.899.482-1.583.482c-.662 0-1.169-.159-1.519-.474s-.517-.768-.502-1.357l.017-.773-.032-2.565h1.278l-.056 3.164c-.005.336.063.583.205.742s.363.237.663.237c.305 0 .529-.077.675-.233s.214-.393.209-.714l-.056-3.196h1.303l-.047 2.58zm3.301-2.659c.452 0 .91.09 1.373.268l-.205 1.073-.19.071c-.2-.132-.4-.234-.599-.308s-.374-.11-.521-.11c-.173 0-.312.043-.414.13s-.154.188-.154.304c0 .132.064.243.194.335s.333.202.612.328c.295.137.533.262.714.374s.34.264.473.453c.134.189.202.421.202.694 0 .305-.082.581-.248.828s-.4.444-.706.588-.657.218-1.057.218a4.192 4.192 0 0 1-1.579-.316l.181-1.144.134-.079c.22.184.461.327.722.43s.485.154.675.154c.2 0 .351-.045.454-.134s.153-.194.153-.315c0-.142-.065-.261-.197-.355s-.337-.205-.616-.332c-.283-.131-.516-.254-.698-.367s-.338-.264-.469-.453a1.19 1.19 0 0 1-.197-.694c0-.311.083-.59.248-.84.167-.25.397-.446.694-.588s.64-.211 1.023-.211zm6.537 0c.727 0 1.287.217 1.681.651s.592 1.051.592 1.85c0 .874-.216 1.55-.648 2.032s-1.038.722-1.822.722c-.721 0-1.278-.222-1.673-.667s-.591-1.074-.591-1.89c0-.863.213-1.528.642-1.996.428-.469 1.036-.703 1.819-.703zm-.11 1.026c-.246 0-.444.048-.591.146s-.255.255-.323.474-.102.514-.102.888c0 .447.034.798.102 1.054s.177.438.327.548.354.166.612.166c.253 0 .452-.049.6-.146s.254-.256.319-.478.099-.523.099-.908c0-.442-.035-.789-.103-1.042s-.176-.433-.323-.541c-.147-.107-.352-.161-.615-.161zm7.934 2.533.047 1.61h-1.39l-1.807-3.149h-.079l-.008 1.357.047 1.792h-1.16l.063-1.499-.063-3.591h1.381l1.815 3.149h.079l-.031-3.101 1.176-.072-.071 3.503zM42.574 22.69l.11 2.336h-2.747l.137-2.336-.013-.426-2.844-6.126h2.885l.219.742 1.003 2.679h.165l1.154-2.583.316-.839h2.802l-3.159 6.03-.028.523zm6.977-6.716c1.291 0 2.289.383 2.994 1.146.705.765 1.057 1.845 1.057 3.235 0 1.538-.387 2.728-1.16 3.571-.774.841-1.87 1.263-3.29 1.263-1.291 0-2.289-.387-2.994-1.16-.705-.775-1.057-1.871-1.057-3.29 0-1.52.387-2.695 1.16-3.525.774-.826 1.871-1.241 3.29-1.241zm-.247 2.198c-.357 0-.627.061-.811.185-.183.123-.314.341-.392.653s-.116.765-.116 1.36c0 .76.041 1.337.124 1.731s.222.668.419.824.487.233.873.233c.357 0 .627-.061.81-.185.183-.123.314-.343.392-.658.078-.317.116-.771.116-1.368 0-.751-.041-1.323-.124-1.717s-.222-.668-.419-.824c-.196-.158-.487-.235-.872-.235zm12.774 2.473-.014 1.414c-.009 1.008-.349 1.781-1.017 2.322s-1.624.81-2.871.81c-1.2 0-2.117-.27-2.753-.81s-.941-1.314-.914-2.322l.041-1.414-.082-4.506h2.76l-.124 5.549c-.009.467.08.806.268 1.017s.493.317.914.317c.43 0 .742-.105.934-.317.192-.21.283-.549.274-1.017l-.124-5.549h2.802l-.096 4.506zm7.774-4.313-.151 2.005-1.812-.082h-.166l-.068 3.887.109 2.886h-2.747l.137-2.611-.069-4.162h-.178l-1.827.082-.165-.193.151-2.005H69.7l.151.193zm8.324 4.313-.014 1.414c-.009 1.008-.348 1.781-1.016 2.322s-1.625.81-2.871.81c-1.201 0-2.118-.27-2.754-.81s-.941-1.314-.914-2.322l.041-1.414-.082-4.506h2.76l-.124 5.549c-.009.467.081.806.268 1.017s.493.317.914.317c.43 0 .742-.105.934-.317.193-.21.284-.549.276-1.017l-.124-5.549h2.802l-.096 4.506zm7.376-.193c.577.165.995.409 1.256.735s.392.749.392 1.27c0 .924-.378 1.599-1.133 2.027-.755.426-1.885.639-3.386.639-.833 0-1.817-.033-2.953-.096l.137-2.611-.137-6.277 3.97-.013c1.007 0 1.795.195 2.363.584s.852.953.852 1.696c0 .459-.117.865-.351 1.216-.234.353-.57.63-1.01.831zm-1.442-1.648c0-.32-.112-.542-.337-.667-.224-.123-.643-.185-1.256-.185h-.124l-.056 1.812 1.029.042c.256-.082.444-.202.564-.357s.179-.371.179-.646zm-.907 4.505c.375 0 .67-.082.885-.246s.323-.402.323-.714c0-.21-.061-.38-.185-.507-.124-.13-.323-.238-.598-.331l-1.331.028-.014.604.041 1.113c.458.036.752.054.88.054zm11.442-.481.151.193-.166 2.005h-6.263l.138-2.611-.138-6.277h6.374l.151.193-.179 2.005-2.184-.082h-1.415l-.027 1.25h1.36l1.429-.04.151.193-.165 2.005-1.593-.042h-1.236l-.013.521.027.77h1.319l2.28-.082z"/><path fill="#ab0303" style="fill:var(--color11, #ab0303)" d="M.366 28.971c0 .604.246 1.153.644 1.55s.946.644 1.551.644h104.968a2.18 2.18 0 0 0 1.55-.644c.398-.397.645-.947.645-1.55l.366-26.957v26.957c0 .705-.288 1.346-.752 1.81s-1.106.753-1.811.753H2.56a2.554 2.554 0 0 1-1.81-.753 2.56 2.56 0 0 1-.752-1.81V2.014l.366 26.957z"/><path fill="#fff" style="fill:var(--color3, #fff)" d="M24.217 12.467s-.172-1.218-.704-1.753c-.673-.703-1.426-.708-1.77-.749-2.472-.18-6.183-.18-6.183-.18h-.007s-3.71 0-6.183.18c-.346.042-1.098.045-1.771.749-.53.535-.7 1.753-.7 1.753s-.176 1.43-.176 2.863v1.339c0 1.429.176 2.862.176 2.862s.172 1.218.701 1.755c.672.703 1.556.681 1.951.756 1.415.134 6.01.175 6.01.175s3.715-.007 6.186-.184c.346-.04 1.098-.044 1.771-.749.531-.534.703-1.753.703-1.753s.177-1.43.177-2.863v-1.34a27.027 27.027 0 0 0-.181-2.861zm-10.489 5.826v-4.967l4.774 2.492-4.774 2.475z"/></symbol><symbol id="icon-painting" viewBox="0 0 26 32"><path fill="#383838" style="fill:var(--color12, #383838)" d="M23.591 14.063a2.53 2.53 0 0 0-1.827.558l.005-.004-2.055-3.802a7.45 7.45 0 0 1 3.601-1.098l.016-.001c.094 1.823 0 2.5.26 4.339zM23.073 9.094a8.632 8.632 0 0 0-3.65 1.085l.044-.023-1.563-8.578c-.156-.68-.167-1.18.594-1.563a1.033 1.033 0 0 1 .759.087l-.006-.003c.224.145.391.36.472.614l.002.008 3.349 8.372z"/><path fill="#f7e5d9" style="fill:var(--color13, #f7e5d9)" d="M14.18 31.893c4.195-.607 7.917-3.352 10.07-6.818a2.129 2.129 0 0 1-.535-.151l.014.005a2.059 2.059 0 0 1-1.102-1.168l-.005-.014c-.156-.365-.703-.781-1.237-1.201-1.516-1.172-2.984-2.313-2.664-4.948a4.77 4.77 0 0 1 .533-1.655l-.012.025-1.982-3.646a2.03 2.03 0 0 1-.222-.644l-.002-.012c-.023-.047-.047-.091-.065-.138a9.76 9.76 0 0 1-1.796.818l-.071.021c-3.594 1.13-6.042-.487-3.219-4.198 1.93-2.536-2.328-4.833-6.102-2.271C2.71 7.984.046 12.575-.001 17.625c-.065 7.307 6.339 15.401 14.18 14.268z"/><path fill="#33a867" style="fill:var(--color14, #33a867)" d="M3.505 21.674a2.318 2.318 0 1 0 .371-3.255l.005-.004a2.32 2.32 0 0 0-.372 3.263l-.004-.005z"/><path fill="#fdba21" style="fill:var(--color15, #fdba21)" d="M8.745 27.529a2.677 2.677 0 1 0 .427-3.758l.005-.004a2.678 2.678 0 0 0-.428 3.769l-.004-.005z"/><path fill="#fb434c" style="fill:var(--color16, #fb434c)" d="M16.06 25.336a2.201 2.201 0 0 0 3.441-2.741l.004.006c-1.797-2.26-5.242.469-3.445 2.734z"/><path fill="#383838" style="fill:var(--color12, #383838)" d="M25.164 22.508c-.813-2.156-4.109-2.628-3.794-5.227.108-.756.516-1.4 1.099-1.817l.008-.005c.229-.158.506-.265.805-.296l.008-.001a1.778 1.778 0 0 1 .41 0l-.008-.001c1.706.219 2.448 2.003 2.438 3.549 0 1.427-.552 2.865-.964 3.802z"/><path fill="#47bcff" style="fill:var(--color17, #47bcff)" d="M4.133 14.424a1.957 1.957 0 1 0 .311-2.746l.004-.003a1.952 1.952 0 0 0-.312 2.754l-.003-.004z"/></symbol><symbol id="icon-safety" viewBox="0 0 29 32"><path fill="#51b53c" style="fill:var(--color18, #51b53c)" d="M14.508 0c5.43 3.44 10.333 5.07 14.544 4.685.734 14.87-4.755 23.651-14.487 27.315C5.167 28.57-.391 20.167.021 4.458c4.943.26 9.789-.81 14.487-4.458z"/><path fill="#fff" style="fill:var(--color3, #fff)" d="M14.513 1.836c4.805 3.047 9.148 4.487 12.872 4.146.651 13.161-4.211 20.935-12.823 24.18C6.244 27.126 1.325 19.688 1.69 5.784c4.375.229 8.667-.716 12.823-3.948z"/><path fill="#51b53c" style="fill:var(--color18, #51b53c)" d="M14.646 5.089c3.703 2.346 7.047 3.456 9.917 3.195.5 10.141-3.242 16.128-9.88 18.628l-.125-.047-.125.047c-6.635-2.5-10.38-8.487-9.88-18.628 2.87.263 6.216-.849 9.917-3.195l.086.065.091-.065z"/><path fill="#fff" style="fill:var(--color3, #fff)" d="m9.229 15.177 1.945-.026.146.036a7.422 7.422 0 0 1 1.823 1.469 28.166 28.166 0 0 1 2.229-3.104c.862-1.039 1.401-1.609 2.359-2.471l.19-.073h2.125l-.43.474c-1.315 1.461-2.138 2.602-3.216 4.159a44.63 44.63 0 0 0-2.904 4.828l-.268.516-.245-.526c-.453-.971-.995-1.862-1.641-2.659s-1.398-1.505-2.276-2.107l.161-.516z"/></symbol><symbol id="icon-sponge" viewBox="0 0 36 32"><path fill="#eab02b" style="fill:var(--color19, #eab02b)" d="M32.678 6.797c1.764 2.841 3.156 5.949 2.999 8.805-.363 6.642-8.375 7.549-12.376 9.842-3.39 1.943-7.082 6.801-12.019 6.546-1.77-.092-3.215-.763-4.44-1.77-1.435-1.179-2.571-2.82-3.578-4.534a13.046 13.046 0 0 1-1.577-2.182C.37 21.223-.271 18.547.107 16.068c.262-1.725.972-3.113 2.01-4.235C3.834 9.975 6.07 9.166 8.366 8.341c3.308-1.188 4.534-2.203 6.195-3.575.778-.643 1.65-1.363 2.89-2.231C19.229 1.291 20.996.372 22.789.09c1.822-.286 3.653.083 5.518 1.427 1.755 1.264 3.31 3.149 4.359 5.254l.013.026z"/><path fill="#fcd95b" style="fill:var(--color20, #fcd95b)" d="M.478 16.124c-.729 4.787 2.486 10.356 6.996 12.118 3.101 1.212 5.935.302 8.517-1.656l.14-.107a61.172 61.172 0 0 0 1.784-1.462c3.997-3.382 5.39-3.029 9.654-5.018 3.354-1.565 5.823-3.588 6.095-6.987.33-4.115-2.262-8.803-5.577-11.191C24.533-.74 21.134.412 17.663 2.842 13.808 5.54 13.418 6.923 8.49 8.693a66.61 66.61 0 0 0-2.322.882C3.182 10.833.977 12.832.476 16.123zm10.488-.492a1.298 1.298 0 1 1 1.3 2.248 1.298 1.298 0 0 1-1.3-2.248zm-2.209-3.954a.784.784 0 1 1 .784 1.36.784.784 0 0 1-.784-1.361zm12.67 5.711a1.192 1.192 0 1 1-.435 1.627 1.192 1.192 0 0 1 .436-1.628zm-4.995-9.696a.716.716 0 1 1 .715 1.24.716.716 0 0 1-.715-1.24zm.104 7.623a.794.794 0 1 1 .793 1.375.794.794 0 0 1-.793-1.375zm-3.684-5.352a.794.794 0 1 1 .794 1.375.794.794 0 0 1-.794-1.375zm-7.14 4.297A.888.888 0 1 1 6.6 15.8a.888.888 0 0 1-.888-1.539zm22-4.903a.759.759 0 1 1 .76 1.315.759.759 0 0 1-.76-1.315zm-1.99-4.641a.9.9 0 1 1 .9 1.559.9.9 0 0 1-.9-1.559zm2.186 9.573a.71.71 0 1 1-.003.001l.003-.002zM22.48 8.392a.784.784 0 1 1 .784 1.358.784.784 0 0 1-.784-1.358zm-2.385-3.547a1.025 1.025 0 1 1 1.026 1.775 1.025 1.025 0 0 1-1.026-1.775zm-2.076 6.252a1.027 1.027 0 1 1 1.026 1.78 1.027 1.027 0 0 1-1.026-1.78zM8.227 23.542a.888.888 0 1 1 .888 1.54.888.888 0 1 1-.888-1.54zm-1.736-4.7a1.334 1.334 0 1 1 1.335 2.31 1.334 1.334 0 0 1-1.335-2.31zm6.191 4.141a.888.888 0 1 1 .888 1.54.888.888 0 1 1-.888-1.54zm1.597-4.001a.888.888 0 1 1 .89 1.538.888.888 0 0 1-.89-1.538zm8.572-6.765a1.3 1.3 0 1 1 1.3 2.25 1.3 1.3 0 0 1-1.3-2.25z"/></symbol></defs></svg>