<svg aria-hidden="true" style="position: absolute; width: 0; height: 0; overflow: hidden;" version="1.1" xmlns="http://www.w3.org/2000/svg" xmlns:xlink="http://www.w3.org/1999/xlink">
    <defs>
        <symbol id="icon-instagram" viewBox="0 0 109 32">
            <path fill="#a33183" style="fill: var(--color1, #a33183)" d="M27.544 30.096v-29.342h1.465v29.342h-1.465z"></path>
            <path fill="#a8277d" style="fill: var(--color2, #a8277d)" d="M37.982 21.982l0.105 2.711h-2.632l0.132-2.456-0.132-5.912h2.632l-0.149 5.658zM47.123 21.982l0.096 2.728h-2.816l-2.351-4.474h-0.158v1.447l0.105 3.026h-2.368l0.132-2.456-0.132-5.912h2.816l2.36 4.474h0.149l-0.079-4.386 2.386-0.149-0.167 5.684zM51.895 16.193c0.874 0.002 1.709 0.166 2.477 0.463l-0.047-0.016-0.412 2.114-0.36 0.149c-0.307-0.191-0.663-0.368-1.035-0.511l-0.044-0.015c-0.258-0.111-0.558-0.181-0.872-0.193l-0.005-0c-0.016-0.001-0.034-0.002-0.052-0.002-0.155 0-0.301 0.043-0.425 0.118l0.004-0.002c-0.104 0.065-0.173 0.178-0.175 0.307v0c0.007 0.182 0.111 0.338 0.261 0.42l0.003 0.001c0.245 0.155 0.533 0.31 0.831 0.446l0.046 0.019c0.474 0.202 0.866 0.402 1.243 0.624l-0.050-0.027c0.325 0.201 0.596 0.456 0.81 0.755l0.006 0.008c0.22 0.319 0.352 0.713 0.352 1.138 0 0.019-0 0.039-0.001 0.058l0-0.003c0 0.006 0 0.013 0 0.021 0 0.527-0.164 1.015-0.444 1.417l0.005-0.008c-0.305 0.417-0.707 0.747-1.174 0.957l-0.019 0.008c-0.519 0.239-1.126 0.378-1.765 0.378-0.036 0-0.072-0-0.108-0.001l0.005 0c-0.994-0.014-1.942-0.193-2.824-0.51l0.060 0.019 0.377-2.254 0.254-0.149c0.367 0.279 0.786 0.518 1.236 0.698l0.036 0.013c0.332 0.153 0.718 0.251 1.124 0.272l0.008 0c0.022 0.002 0.048 0.003 0.074 0.003 0.167 0 0.324-0.047 0.457-0.128l-0.004 0.002c0.095-0.070 0.156-0.181 0.158-0.307v-0c-0.002-0.196-0.11-0.365-0.269-0.455l-0.003-0.001c-0.25-0.164-0.538-0.32-0.84-0.45l-0.038-0.015c-0.459-0.194-0.843-0.391-1.21-0.612l0.043 0.024c-0.32-0.199-0.587-0.454-0.792-0.754l-0.006-0.009c-0.21-0.319-0.334-0.71-0.334-1.131 0-0.022 0-0.044 0.001-0.066l-0 0.003c-0-0.009-0-0.019-0-0.029 0-0.536 0.164-1.033 0.444-1.445l-0.006 0.009c0.305-0.431 0.71-0.772 1.183-0.992l0.018-0.008c0.505-0.233 1.096-0.369 1.719-0.369 0.012 0 0.025 0 0.037 0h-0.002zM61.193 16.526l-0.14 1.886-1.675-0.114h-0.149l-0.070 3.667 0.105 2.711h-2.623l0.132-2.456-0.026-3.921h-0.167l-1.754 0.079-0.149-0.175 0.14-1.895h6.246l0.14 0.184zM68.579 24.711h-2.632l-0.228-1.386h-1.263l-1.061 0.053-0.219 1.395h-2.544l2.535-8.368h3.123l2.289 8.368zM65.325 21.404l-0.57-2.746h-0.114l-0.719 2.746h1.447zM73.307 16.202c0.042-0.001 0.091-0.001 0.141-0.001 0.814 0 1.595 0.142 2.319 0.402l-0.048-0.015-0.553 2.272h-0.202c-0.309-0.16-0.68-0.317-1.064-0.448l-0.059-0.017c-0.252-0.065-0.54-0.102-0.838-0.102-0.066 0-0.132 0.002-0.197 0.005l0.009-0c-0.022-0.001-0.048-0.002-0.074-0.002-0.293 0-0.57 0.072-0.813 0.199l0.010-0.005c-0.23 0.159-0.395 0.399-0.455 0.677l-0.001 0.007c-0.096 0.38-0.151 0.815-0.151 1.264 0 0.055 0.001 0.11 0.002 0.165l-0-0.008c-0.002 0.050-0.003 0.108-0.003 0.167 0 0.454 0.055 0.896 0.16 1.318l-0.008-0.038c0.062 0.294 0.238 0.539 0.478 0.69l0.004 0.003c0.251 0.13 0.547 0.206 0.862 0.206 0.046 0 0.091-0.002 0.136-0.005l-0.006 0c0.168-0.005 0.328-0.024 0.483-0.056l-0.018 0.003v-1.825l2.368-0.167v3.43c-0.886 0.354-1.913 0.562-2.988 0.57l-0.003 0c-0.090 0.007-0.194 0.011-0.3 0.011-1.069 0-2.041-0.415-2.764-1.092l0.002 0.002c-0.649-0.744-1.045-1.724-1.045-2.796 0-0.103 0.004-0.204 0.011-0.305l-0.001 0.014c-0.007-0.091-0.011-0.198-0.011-0.305 0-1.184 0.469-2.258 1.231-3.047l-0.001 0.001c0.853-0.721 1.965-1.16 3.18-1.16 0.116 0 0.23 0.004 0.344 0.012l-0.015-0.001zM82.272 21.395c0.623 0.965 1.237 1.868 1.86 2.693v0.281c-0.774 0.25-1.671 0.422-2.6 0.481l-0.032 0.002-0.246-0.211-0.149-0.325q-0.105-0.193-0.421-0.877c-0.202-0.447-0.386-0.877-0.535-1.246h-0.877l0.088 2.491h-2.632l0.132-2.456-0.132-5.912h3.965c0.065-0.005 0.14-0.007 0.216-0.007 0.742 0 1.425 0.254 1.966 0.679l-0.007-0.005c0.473 0.439 0.769 1.064 0.769 1.758 0 0.057-0.002 0.114-0.006 0.171l0-0.008c0 0.002 0 0.005 0 0.008 0 0.504-0.137 0.977-0.375 1.382l0.007-0.013c-0.259 0.45-0.604 0.823-1.015 1.107l-0.011 0.007zM80.939 19.175c0.002-0.024 0.003-0.052 0.003-0.080 0-0.264-0.101-0.504-0.267-0.684l0.001 0.001c-0.217-0.176-0.496-0.283-0.8-0.283-0.027 0-0.054 0.001-0.081 0.003l0.004-0h-0.465l-0.053 2.158 0.939 0.053c0.224-0.093 0.407-0.247 0.532-0.443l0.003-0.005c0.106-0.197 0.169-0.431 0.169-0.68 0-0.026-0.001-0.052-0.002-0.078l0 0.004zM92.035 24.711h-2.632l-0.202-1.404h-1.272l-1.053 0.053-0.228 1.395h-2.561l2.526-8.368h3.132l2.289 8.368zM88.781 21.404l-0.57-2.746h-0.158l-0.719 2.746h1.447zM102.088 24.711h-2.272l-0.088-2.553-0.14-2.105h-0.158l-1.342 3.851h-1.956l-1.088-3.851h-0.158l-0.184 1.86-0.132 2.781h-2.158l0.816-8.368h2.991l0.246 1.193 0.737 3.035h0.149l0.816-2.947 0.298-1.281h2.947l0.675 8.368z"></path>
            <path fill="#a8277d" style="fill: var(--color2, #a8277d)" d="M36.105 8.597v1.114h1.439l0.070 0.088-0.079 0.877h-1.404v1.798h-1.237l0.070-1.421-0.070-3.377h3l0.070 0.088-0.088 0.877-1.158-0.044zM40.816 7.579c0.038-0.003 0.082-0.004 0.127-0.004 0.573 0 1.090 0.237 1.46 0.617l0 0.001c0.348 0.425 0.559 0.974 0.559 1.573 0 0.064-0.002 0.127-0.007 0.19l0.001-0.008c0.004 0.054 0.006 0.116 0.006 0.179 0 0.659-0.23 1.264-0.615 1.738l0.004-0.005c-0.401 0.425-0.968 0.69-1.597 0.69-0.055 0-0.11-0.002-0.165-0.006l0.007 0c-0.034 0.002-0.074 0.003-0.114 0.003-0.577 0-1.098-0.244-1.464-0.634l-0.001-0.001c-0.347-0.442-0.556-1.005-0.556-1.618 0-0.048 0.001-0.096 0.004-0.143l-0 0.007c-0.004-0.052-0.006-0.112-0.006-0.172 0-0.649 0.231-1.245 0.614-1.709l-0.004 0.005c0.402-0.41 0.961-0.665 1.58-0.665 0.061 0 0.122 0.003 0.182 0.007l-0.008-0.001zM40.711 8.544c-0.015-0.001-0.033-0.001-0.052-0.001-0.185 0-0.358 0.053-0.505 0.144l0.004-0.002c-0.15 0.103-0.26 0.255-0.306 0.433l-0.001 0.005c-0.062 0.232-0.098 0.498-0.098 0.772 0 0.037 0.001 0.074 0.002 0.111l-0-0.005c-0.001 0.028-0.001 0.061-0.001 0.094 0 0.318 0.036 0.628 0.103 0.925l-0.005-0.028c0.040 0.21 0.151 0.389 0.306 0.516l0.002 0.001c0.151 0.094 0.334 0.15 0.53 0.15 0.017 0 0.034-0 0.052-0.001l-0.002 0c0.015 0.001 0.034 0.001 0.052 0.001 0.187 0 0.363-0.049 0.515-0.136l-0.005 0.003c0.147-0.11 0.254-0.268 0.297-0.451l0.001-0.005c0.064-0.221 0.1-0.475 0.1-0.737 0-0.049-0.001-0.098-0.004-0.147l0 0.007c0.001-0.028 0.001-0.061 0.001-0.094 0-0.315-0.036-0.622-0.103-0.916l0.005 0.027c-0.042-0.207-0.152-0.382-0.305-0.508l-0.002-0.001c-0.148-0.095-0.328-0.151-0.521-0.151-0.021 0-0.041 0.001-0.061 0.002l0.003-0zM46.851 11.544l-0.079 0.877h-2.719l0.061-1.421-0.061-3.377h1.219l-0.061 3.254v0.553h1.526l0.070 0.088zM50.614 11.544l-0.079 0.877h-2.728l0.070-1.421-0.070-3.377h1.228l-0.061 3.254v0.553h1.544l0.070 0.088zM53.395 7.579c0.038-0.003 0.082-0.004 0.127-0.004 0.573 0 1.090 0.237 1.46 0.617l0 0.001c0.348 0.425 0.559 0.974 0.559 1.573 0 0.064-0.002 0.127-0.007 0.19l0.001-0.008c0.004 0.054 0.006 0.116 0.006 0.179 0 0.659-0.23 1.264-0.615 1.738l0.004-0.005c-0.401 0.425-0.968 0.69-1.597 0.69-0.055 0-0.11-0.002-0.165-0.006l0.007 0c-0.034 0.002-0.074 0.003-0.114 0.003-0.577 0-1.098-0.244-1.464-0.634l-0.001-0.001c-0.347-0.442-0.556-1.005-0.556-1.618 0-0.048 0.001-0.096 0.004-0.143l-0 0.007c-0.004-0.052-0.006-0.112-0.006-0.172 0-0.649 0.231-1.245 0.614-1.709l-0.004 0.005c0.401-0.409 0.96-0.662 1.577-0.662 0.047 0 0.093 0.001 0.139 0.004l-0.006-0zM53.237 8.544c-0.025-0.002-0.054-0.004-0.083-0.004-0.162 0-0.315 0.040-0.448 0.111l0.005-0.002c-0.15 0.103-0.26 0.255-0.306 0.433l-0.001 0.005c-0.062 0.232-0.098 0.498-0.098 0.772 0 0.037 0.001 0.074 0.002 0.111l-0-0.005c-0.001 0.028-0.001 0.061-0.001 0.094 0 0.318 0.036 0.628 0.103 0.925l-0.005-0.028c0.040 0.21 0.151 0.389 0.306 0.516l0.002 0.001c0.151 0.094 0.334 0.15 0.53 0.15 0.017 0 0.034-0 0.052-0.001l-0.002 0c0.015 0.001 0.034 0.001 0.052 0.001 0.187 0 0.363-0.049 0.515-0.136l-0.005 0.003c0.146-0.114 0.254-0.27 0.306-0.45l0.002-0.006c0.057-0.224 0.090-0.481 0.090-0.745 0-0.046-0.001-0.092-0.003-0.138l0 0.007c-0.007-0.343-0.054-0.671-0.138-0.985l0.007 0.029c-0.042-0.207-0.152-0.382-0.305-0.508l-0.002-0.001c-0.147-0.094-0.327-0.15-0.52-0.15-0.018 0-0.035 0-0.053 0.001l0.002-0zM61.132 12.447h-1.219l-0.605-2.044h-0.070l-0.596 2.070h-1.281l-1.254-4.825h1.175l0.070 0.658 0.693 2.912h0.079l0.702-2.421-0.325-1.149h1.219l0.105 0.772 0.719 2.798h0.079l0.807-2.851 0.123-0.719h1.114l-1.509 4.798zM69.026 10.079v0.693c0.003 0.036 0.005 0.078 0.005 0.12 0 0.464-0.201 0.881-0.521 1.168l-0.001 0.001c-0.366 0.288-0.834 0.461-1.342 0.461-0.052 0-0.104-0.002-0.156-0.005l0.007 0c-0.041 0.003-0.090 0.005-0.139 0.005-0.49 0-0.941-0.17-1.295-0.455l0.004 0.003c-0.291-0.285-0.472-0.683-0.472-1.122 0-0.053 0.003-0.105 0.008-0.156l-0.001 0.007v-3.149h1.272l-0.053 2.982c-0.003 0.028-0.004 0.061-0.004 0.094 0 0.226 0.074 0.434 0.199 0.602l-0.002-0.003c0.144 0.142 0.342 0.23 0.561 0.23 0.022 0 0.043-0.001 0.065-0.003l-0.003 0c0.017 0.001 0.038 0.002 0.058 0.002 0.224 0 0.428-0.084 0.583-0.222l-0.001 0.001c0.123-0.158 0.198-0.36 0.198-0.579 0-0.034-0.002-0.067-0.005-0.1l0 0.004-0.053-3.009h1.228v2.43zM72.132 7.579c0.001 0 0.002 0 0.004 0 0.464 0 0.906 0.093 1.308 0.263l-0.022-0.008-0.193 1.009-0.175 0.061c-0.148-0.094-0.319-0.18-0.498-0.248l-0.020-0.007c-0.145-0.058-0.314-0.093-0.49-0.096l-0.001-0c-0.020-0.002-0.043-0.004-0.066-0.004-0.12 0-0.231 0.038-0.322 0.102l0.002-0.001c-0.086 0.065-0.14 0.166-0.14 0.281v0c0.005 0.133 0.077 0.249 0.183 0.315l0.002 0.001c0.164 0.116 0.352 0.219 0.551 0.3l0.019 0.007c0.274 0.126 0.496 0.243 0.711 0.37l-0.035-0.019c0.174 0.12 0.322 0.262 0.444 0.425l0.004 0.005c0.116 0.174 0.185 0.388 0.185 0.617 0 0.014-0 0.028-0.001 0.043l0-0.002c0 0 0 0.001 0 0.001 0 0.29-0.085 0.559-0.231 0.786l0.003-0.006c-0.17 0.238-0.395 0.426-0.656 0.548l-0.010 0.004c-0.283 0.128-0.614 0.202-0.963 0.202-0.013 0-0.026-0-0.039-0l0.002 0c-0.535-0.001-1.045-0.11-1.508-0.308l0.025 0.010 0.167-1.079 0.132-0.070c0.193 0.164 0.416 0.3 0.659 0.398l0.016 0.006c0.188 0.085 0.407 0.138 0.636 0.149l0.004 0c0.013 0.001 0.027 0.002 0.042 0.002 0.144 0 0.276-0.050 0.38-0.134l-0.001 0.001c0.089-0.070 0.147-0.177 0.149-0.298v-0c-0.002-0.139-0.074-0.261-0.183-0.332l-0.002-0.001c-0.166-0.112-0.357-0.215-0.557-0.299l-0.022-0.008c-0.264-0.124-0.48-0.241-0.688-0.368l0.030 0.017c-0.18-0.112-0.329-0.256-0.444-0.425l-0.003-0.005c-0.116-0.173-0.185-0.386-0.185-0.614 0-0.012 0-0.024 0.001-0.036l-0 0.002c-0-0.004-0-0.008-0-0.012 0-0.29 0.089-0.559 0.24-0.783l-0.003 0.005c0.165-0.247 0.391-0.442 0.657-0.566l0.010-0.004c0.266-0.128 0.578-0.203 0.907-0.203 0.020 0 0.041 0 0.061 0.001l-0.003-0zM78.272 7.579c0.039-0.003 0.084-0.004 0.129-0.004 0.569 0 1.083 0.237 1.449 0.618l0.001 0.001c0.353 0.427 0.567 0.98 0.567 1.583 0 0.060-0.002 0.12-0.006 0.18l0-0.008c0.004 0.054 0.006 0.117 0.006 0.181 0 0.66-0.234 1.265-0.624 1.736l0.004-0.005c-0.397 0.424-0.959 0.688-1.584 0.688-0.045 0-0.089-0.001-0.133-0.004l0.006 0c-0.037 0.002-0.081 0.004-0.124 0.004-0.574 0-1.091-0.244-1.453-0.634l-0.001-0.001c-0.352-0.443-0.564-1.011-0.564-1.629 0-0.044 0.001-0.088 0.003-0.132l-0 0.006c-0.003-0.049-0.005-0.105-0.005-0.163 0-0.654 0.234-1.253 0.622-1.719l-0.003 0.004c0.402-0.41 0.961-0.665 1.58-0.665 0.061 0 0.122 0.003 0.182 0.007l-0.008-0.001zM78.167 8.544c-0.017-0.001-0.037-0.002-0.057-0.002-0.186 0-0.361 0.053-0.508 0.144l0.004-0.002c-0.144 0.106-0.25 0.258-0.297 0.433l-0.001 0.006c-0.064 0.221-0.1 0.475-0.1 0.738 0 0.049 0.001 0.098 0.004 0.146l-0-0.007c-0.002 0.040-0.002 0.087-0.002 0.134 0 0.304 0.036 0.6 0.104 0.883l-0.005-0.026c0.040 0.21 0.151 0.389 0.305 0.516l0.002 0.001c0.15 0.094 0.332 0.15 0.527 0.15 0.015 0 0.030-0 0.045-0.001l-0.002 0c0.017 0.001 0.037 0.002 0.058 0.002 0.188 0 0.365-0.049 0.518-0.136l-0.005 0.003c0.147-0.11 0.254-0.268 0.297-0.451l0.001-0.005c0.062-0.231 0.098-0.496 0.098-0.77 0-0.038-0.001-0.075-0.002-0.113l0 0.005c0.001-0.028 0.001-0.061 0.001-0.094 0-0.315-0.036-0.622-0.103-0.916l0.005 0.027c-0.047-0.205-0.156-0.38-0.306-0.508l-0.001-0.001c-0.151-0.094-0.334-0.15-0.53-0.15-0.017 0-0.034 0-0.052 0.001l0.002-0zM85.693 10.93v1.518h-1.237l-1.702-2.921h-0.070v2.921h-1.053l0.053-1.412-0.053-3.386h1.298l1.754 2.965h0.070v-2.921l1.105-0.061-0.167 3.298z"></path>
            <path fill="#fff" style="fill: var(--color3, #fff)" d="M36.105 8.316v1.114h1.439l0.070 0.088-0.079 0.877h-1.404v1.798h-1.237l0.070-1.421-0.070-3.368h3l0.070 0.088-0.088 0.877-1.158-0.044zM40.816 7.298c0.034-0.002 0.073-0.003 0.113-0.003 0.577 0 1.099 0.236 1.474 0.617l0 0c0.348 0.429 0.558 0.982 0.558 1.584 0 0.060-0.002 0.119-0.006 0.178l0-0.008c0.003 0.052 0.005 0.112 0.005 0.174 0 0.66-0.23 1.267-0.615 1.744l0.004-0.005c-0.4 0.42-0.964 0.682-1.589 0.682-0.058 0-0.116-0.002-0.173-0.007l0.008 0c-0.036 0.002-0.079 0.004-0.121 0.004-0.573 0-1.091-0.24-1.457-0.626l-0.001-0.001c-0.347-0.442-0.556-1.005-0.556-1.618 0-0.048 0.001-0.096 0.004-0.143l-0 0.007c-0.004-0.057-0.007-0.123-0.007-0.19 0-0.644 0.231-1.234 0.615-1.691l-0.003 0.004c0.398-0.416 0.958-0.674 1.578-0.674 0.062 0 0.124 0.003 0.185 0.008l-0.008-0.001zM40.711 8.263c-0.010-0-0.022-0.001-0.034-0.001-0.191 0-0.37 0.052-0.524 0.143l0.005-0.003c-0.15 0.107-0.259 0.262-0.306 0.442l-0.001 0.005c-0.062 0.226-0.098 0.486-0.098 0.754 0 0.028 0 0.056 0.001 0.083l-0-0.004c-0.001 0.029-0.001 0.064-0.001 0.098 0 0.316 0.036 0.625 0.103 0.921l-0.005-0.028c0.040 0.21 0.151 0.389 0.306 0.516l0.002 0.001c0.148 0.1 0.33 0.159 0.526 0.159 0.019 0 0.037-0.001 0.056-0.002l-0.003 0c0.017 0.001 0.037 0.002 0.057 0.002 0.186 0 0.361-0.053 0.508-0.144l-0.004 0.002c0.149-0.105 0.257-0.261 0.297-0.442l0.001-0.005c0.063-0.222 0.1-0.477 0.1-0.741 0-0.048-0.001-0.096-0.004-0.143l0 0.007c0.001-0.029 0.001-0.064 0.001-0.099 0-0.313-0.036-0.618-0.103-0.911l0.005 0.027c-0.042-0.207-0.152-0.382-0.305-0.508l-0.002-0.001c-0.141-0.101-0.317-0.161-0.506-0.161-0.026 0-0.051 0.001-0.076 0.003l0.003-0zM46.851 11.272l-0.079 0.877h-2.719l0.061-1.421-0.061-3.368h1.219l-0.061 3.254v0.544h1.526l0.070 0.097zM50.605 11.281l-0.079 0.877h-2.719l0.070-1.421-0.070-3.368h1.228l-0.061 3.254v0.544h1.544l0.088 0.114zM53.386 7.307c0.034-0.002 0.073-0.003 0.113-0.003 0.577 0 1.099 0.236 1.474 0.617l0 0c0.348 0.429 0.558 0.982 0.558 1.584 0 0.060-0.002 0.119-0.006 0.178l0-0.008c0.003 0.052 0.005 0.112 0.005 0.174 0 0.66-0.23 1.267-0.615 1.744l0.004-0.005c-0.4 0.42-0.964 0.682-1.589 0.682-0.058 0-0.116-0.002-0.173-0.007l0.008 0c-0.036 0.002-0.079 0.004-0.121 0.004-0.573 0-1.091-0.24-1.457-0.626l-0.001-0.001c-0.347-0.442-0.556-1.005-0.556-1.618 0-0.048 0.001-0.096 0.004-0.143l-0 0.007c-0.004-0.057-0.007-0.123-0.007-0.19 0-0.644 0.231-1.234 0.615-1.691l-0.003 0.004c0.398-0.414 0.956-0.671 1.575-0.671 0.048 0 0.095 0.002 0.142 0.005l-0.006-0zM53.237 8.263c-0.010-0-0.022-0.001-0.034-0.001-0.191 0-0.37 0.052-0.524 0.143l0.005-0.003c-0.15 0.107-0.259 0.262-0.306 0.442l-0.001 0.005c-0.062 0.226-0.098 0.486-0.098 0.754 0 0.028 0 0.056 0.001 0.083l-0-0.004c-0.001 0.029-0.001 0.064-0.001 0.098 0 0.316 0.036 0.625 0.103 0.921l-0.005-0.028c0.040 0.21 0.151 0.389 0.306 0.516l0.002 0.001c0.148 0.1 0.33 0.159 0.526 0.159 0.019 0 0.037-0.001 0.056-0.002l-0.003 0c0.017 0.001 0.037 0.002 0.057 0.002 0.186 0 0.361-0.053 0.508-0.144l-0.004 0.002c0.149-0.107 0.258-0.262 0.306-0.442l0.001-0.005c0.057-0.225 0.090-0.484 0.090-0.75 0-0.045-0.001-0.089-0.003-0.134l0 0.006c0-0.011 0-0.025 0-0.039 0-0.325-0.038-0.642-0.111-0.945l0.006 0.028c-0.042-0.207-0.152-0.382-0.305-0.508l-0.002-0.001c-0.141-0.1-0.316-0.16-0.505-0.16-0.023 0-0.045 0.001-0.068 0.003l0.003-0zM61.132 12.167h-1.219l-0.605-2.061h-0.070l-0.596 2.053h-1.281l-1.254-4.781h1.175l0.070 0.649 0.693 2.912h0.079l0.702-2.421-0.325-1.14h1.219l0.105 0.772 0.719 2.789h0.079l0.807-2.842 0.123-0.719h1.114l-1.482 4.781zM69.026 9.807v0.693c0.003 0.034 0.004 0.073 0.004 0.113 0 0.466-0.201 0.885-0.52 1.175l-0.001 0.001c-0.371 0.287-0.844 0.46-1.356 0.46-0.048 0-0.095-0.002-0.141-0.004l0.006 0c-0.041 0.003-0.090 0.005-0.139 0.005-0.49 0-0.941-0.17-1.295-0.455l0.004 0.003c-0.292-0.288-0.472-0.688-0.472-1.13 0-0.053 0.003-0.106 0.008-0.158l-0.001 0.007v-3.14h1.272l-0.053 2.974c-0.003 0.028-0.004 0.061-0.004 0.094 0 0.228 0.074 0.44 0.199 0.611l-0.002-0.003c0.142 0.138 0.336 0.223 0.55 0.223 0.026 0 0.051-0.001 0.076-0.004l-0.003 0c0.017 0.001 0.038 0.002 0.058 0.002 0.224 0 0.428-0.084 0.583-0.222l-0.001 0.001c0.124-0.15 0.2-0.345 0.2-0.557 0-0.039-0.002-0.076-0.007-0.114l0 0.004-0.053-3.009h1.228v2.43zM72.132 7.298c0.465 0.003 0.908 0.096 1.313 0.263l-0.023-0.008-0.123 1.009-0.175 0.070c-0.169-0.111-0.363-0.208-0.568-0.283l-0.020-0.006c-0.145-0.060-0.313-0.098-0.488-0.105l-0.003-0c-0.008-0-0.018-0.001-0.028-0.001-0.138 0-0.266 0.046-0.368 0.125l0.001-0.001c-0.086 0.066-0.14 0.169-0.14 0.285 0 0.002 0 0.003 0 0.005v-0c0.005 0.133 0.077 0.249 0.183 0.315l0.002 0.001c0.161 0.106 0.349 0.208 0.544 0.296l0.027 0.011c0.266 0.117 0.488 0.235 0.701 0.365l-0.025-0.014c0.178 0.115 0.326 0.258 0.444 0.425l0.003 0.005c0.116 0.173 0.185 0.386 0.185 0.614 0 0.012-0 0.024-0.001 0.036l0-0.002c0 0.004 0 0.009 0 0.014 0 0.285-0.085 0.551-0.231 0.772l0.003-0.005c-0.165 0.242-0.391 0.432-0.657 0.549l-0.010 0.004c-0.28 0.133-0.608 0.211-0.954 0.211-0.016 0-0.032-0-0.048-0.001l0.002 0c-0.536-0.005-1.044-0.114-1.509-0.308l0.027 0.010 0.167-1.079 0.132-0.079c0.193 0.167 0.416 0.305 0.659 0.406l0.016 0.006c0.188 0.083 0.408 0.134 0.638 0.14l0.002 0c0.012 0.001 0.026 0.001 0.039 0.001 0.143 0 0.276-0.046 0.383-0.125l-0.002 0.001c0.1-0.071 0.164-0.186 0.164-0.316s-0.064-0.245-0.163-0.315l-0.001-0.001c-0.165-0.111-0.355-0.217-0.554-0.306l-0.025-0.010c-0.259-0.114-0.475-0.228-0.682-0.356l0.024 0.014c-0.178-0.115-0.326-0.258-0.444-0.425l-0.003-0.005c-0.116-0.173-0.185-0.386-0.185-0.614 0-0.012 0-0.024 0.001-0.036l-0 0.002c-0-0.005-0-0.012-0-0.018 0-0.291 0.089-0.561 0.24-0.785l-0.003 0.005c0.163-0.238 0.382-0.427 0.639-0.548l0.010-0.004c0.274-0.128 0.595-0.202 0.933-0.202 0.011 0 0.023 0 0.034 0l-0.002-0zM78.272 7.298c0.035-0.002 0.077-0.003 0.119-0.003 0.573 0 1.090 0.236 1.46 0.617l0 0c0.353 0.431 0.567 0.988 0.567 1.594 0 0.056-0.002 0.112-0.005 0.168l0-0.008c0.004 0.053 0.006 0.115 0.006 0.178 0 0.661-0.234 1.266-0.624 1.739l0.004-0.005c-0.395 0.419-0.953 0.68-1.572 0.68-0.049 0-0.097-0.002-0.145-0.005l0.007 0c-0.040 0.003-0.086 0.004-0.132 0.004-0.57 0-1.084-0.241-1.446-0.626l-0.001-0.001c-0.352-0.443-0.564-1.011-0.564-1.629 0-0.044 0.001-0.088 0.003-0.132l-0 0.006c-0.004-0.054-0.006-0.117-0.006-0.18 0-0.648 0.235-1.242 0.623-1.701l-0.003 0.004c0.398-0.416 0.958-0.674 1.578-0.674 0.062 0 0.124 0.003 0.185 0.008l-0.008-0.001zM78.167 8.263c-0.011-0-0.024-0.001-0.037-0.001-0.193 0-0.374 0.052-0.529 0.144l0.005-0.003c-0.145 0.109-0.251 0.264-0.297 0.442l-0.001 0.006c-0.063 0.214-0.099 0.461-0.099 0.715 0 0.041 0.001 0.083 0.003 0.124l-0-0.006c-0.002 0.041-0.003 0.090-0.003 0.139 0 0.303 0.036 0.597 0.104 0.878l-0.005-0.025c0.040 0.21 0.151 0.389 0.305 0.516l0.002 0.001c0.147 0.1 0.328 0.159 0.523 0.159 0.017 0 0.033-0 0.050-0.001l-0.002 0c0.018 0.001 0.040 0.002 0.061 0.002 0.188 0 0.364-0.053 0.513-0.145l-0.004 0.002c0.149-0.105 0.257-0.261 0.297-0.442l0.001-0.005c0.062-0.232 0.098-0.499 0.098-0.775 0-0.036-0.001-0.072-0.002-0.108l0 0.005c0.001-0.029 0.001-0.064 0.001-0.099 0-0.313-0.036-0.618-0.103-0.911l0.005 0.027c-0.042-0.207-0.152-0.382-0.305-0.508l-0.002-0.001c-0.148-0.1-0.33-0.159-0.526-0.159-0.019 0-0.037 0.001-0.056 0.002l0.003-0zM85.693 10.649v1.518h-1.237l-1.702-2.965h-0.070v2.965h-1.053l0.053-1.412-0.053-3.377h1.298l1.754 2.965h0.070v-2.921l1.105-0.070-0.167 3.298z"></path>
            <path fill="#fff" style="fill: var(--color3, #fff)" d="M37.982 21.596l0.105 2.719h-2.632l0.132-2.456-0.132-5.912h2.632l-0.149 5.649zM47.123 21.596l0.096 2.728h-2.816l-2.351-4.474h-0.158v1.447l0.105 3.026h-2.368l0.132-2.456-0.132-5.912h2.816l2.36 4.474h0.149l-0.079-4.386 2.386-0.149-0.167 5.693zM51.895 15.807c0.874 0.002 1.709 0.166 2.477 0.463l-0.047-0.016-0.412 2.105-0.36 0.158c-0.309-0.196-0.665-0.373-1.039-0.513l-0.040-0.013c-0.258-0.111-0.558-0.181-0.872-0.193l-0.005-0c-0.016-0.001-0.034-0.002-0.052-0.002-0.155 0-0.301 0.043-0.425 0.118l0.004-0.002c-0.105 0.064-0.175 0.177-0.175 0.307v0c0.007 0.182 0.111 0.338 0.261 0.42l0.003 0.001c0.243 0.15 0.531 0.303 0.829 0.437l0.048 0.019c0.481 0.212 0.872 0.415 1.251 0.637l-0.058-0.031c0.325 0.201 0.596 0.456 0.81 0.755l0.006 0.008c0.22 0.319 0.352 0.713 0.352 1.138 0 0.019-0 0.039-0.001 0.058l0-0.003c0 0.006 0 0.013 0 0.021 0 0.527-0.164 1.015-0.444 1.417l0.005-0.008c-0.311 0.44-0.725 0.787-1.209 1.010l-0.019 0.008c-0.527 0.239-1.143 0.378-1.792 0.378-0.027 0-0.054-0-0.080-0.001l0.004 0c-0.994-0.014-1.942-0.193-2.824-0.51l0.060 0.019 0.377-2.254 0.254-0.149c0.367 0.279 0.786 0.518 1.236 0.698l0.036 0.013c0.332 0.153 0.718 0.251 1.124 0.272l0.008 0c0.022 0.002 0.048 0.003 0.074 0.003 0.167 0 0.324-0.047 0.457-0.128l-0.004 0.002c0.095-0.070 0.156-0.181 0.158-0.307v-0c-0.002-0.196-0.11-0.365-0.269-0.455l-0.003-0.001c-0.25-0.164-0.538-0.32-0.84-0.45l-0.038-0.015c-0.459-0.194-0.843-0.391-1.21-0.612l0.043 0.024c-0.32-0.199-0.587-0.454-0.792-0.754l-0.006-0.009c-0.21-0.319-0.334-0.71-0.334-1.131 0-0.022 0-0.044 0.001-0.066l-0 0.003c-0-0.006-0-0.012-0-0.019 0-0.542 0.164-1.046 0.445-1.464l-0.006 0.009c0.311-0.443 0.725-0.793 1.209-1.018l0.019-0.008c0.505-0.233 1.096-0.369 1.719-0.369 0.012 0 0.025 0 0.037 0h-0.002zM61.193 16.14l-0.14 1.886-1.754-0.079h-0.149l-0.070 3.658 0.105 2.719h-2.544l0.132-2.456-0.026-3.93h-0.167l-1.754 0.079-0.149-0.184 0.14-1.886h6.246l0.14 0.184zM68.579 24.325h-2.632l-0.228-1.386h-1.263l-1.061 0.053-0.219 1.395h-2.544l2.535-8.368h3.123l2.289 8.368zM65.325 21.018l-0.57-2.719h-0.114l-0.719 2.746h1.447zM73.307 15.816c0.042-0.001 0.091-0.001 0.141-0.001 0.814 0 1.595 0.142 2.319 0.402l-0.048-0.015-0.553 2.281h-0.202c-0.309-0.16-0.68-0.317-1.064-0.448l-0.059-0.017c-0.294-0.089-0.633-0.141-0.983-0.141-0.015 0-0.030 0-0.045 0l0.002-0c-0.022-0.001-0.048-0.002-0.074-0.002-0.293 0-0.57 0.072-0.813 0.199l0.010-0.005c-0.23 0.159-0.395 0.399-0.455 0.677l-0.001 0.007c-0.096 0.38-0.151 0.815-0.151 1.264 0 0.055 0.001 0.11 0.002 0.165l-0-0.008c-0.002 0.050-0.003 0.108-0.003 0.167 0 0.454 0.055 0.896 0.16 1.318l-0.008-0.038c0.062 0.294 0.238 0.539 0.478 0.69l0.004 0.003c0.251 0.13 0.547 0.206 0.862 0.206 0.046 0 0.091-0.002 0.136-0.005l-0.006 0c0.168-0.005 0.328-0.024 0.483-0.056l-0.018 0.003v-1.825l2.368-0.167v3.43c-0.886 0.354-1.913 0.562-2.988 0.57l-0.003 0c-0.090 0.007-0.194 0.011-0.3 0.011-1.069 0-2.041-0.415-2.764-1.092l0.002 0.002c-0.649-0.746-1.045-1.728-1.045-2.802 0-0.1 0.003-0.2 0.010-0.299l-0.001 0.013c-0.007-0.091-0.011-0.198-0.011-0.305 0-1.184 0.469-2.258 1.231-3.047l-0.001 0.001c0.853-0.721 1.965-1.16 3.18-1.16 0.116 0 0.23 0.004 0.344 0.012l-0.015-0.001zM82.272 21.018c0.623 0.965 1.237 1.86 1.86 2.693v0.281c-0.774 0.25-1.671 0.422-2.6 0.481l-0.032 0.002-0.246-0.211-0.149-0.325c-0.070-0.132-0.211-0.43-0.421-0.877s-0.386-0.877-0.535-1.246h-0.877l0.088 2.491h-2.632l0.132-2.456-0.132-5.912h3.965c0.065-0.005 0.14-0.007 0.216-0.007 0.742 0 1.425 0.254 1.966 0.679l-0.007-0.005c0.473 0.439 0.769 1.064 0.769 1.758 0 0.057-0.002 0.114-0.006 0.171l0-0.008c0 0.002 0 0.005 0 0.008 0 0.504-0.137 0.977-0.375 1.382l0.007-0.013c-0.252 0.446-0.585 0.818-0.981 1.107l-0.010 0.007zM80.939 18.781c0.002-0.023 0.003-0.049 0.003-0.076 0-0.268-0.101-0.512-0.267-0.697l0.001 0.001c-0.22-0.171-0.5-0.274-0.804-0.274-0.026 0-0.052 0.001-0.077 0.002l0.004-0h-0.465l-0.053 2.158 0.939 0.053c0.223-0.096 0.405-0.25 0.532-0.443l0.003-0.004c0.106-0.199 0.168-0.435 0.168-0.686 0-0.024-0.001-0.048-0.002-0.072l0 0.003zM92.035 24.316h-2.632l-0.202-1.386h-1.272l-1.053 0.053-0.228 1.395h-2.561l2.526-8.368h3.132l2.289 8.368zM88.781 21.009l-0.57-2.711h-0.158l-0.719 2.746h1.447zM102.088 24.316h-2.272l-0.088-2.509-0.14-2.105h-0.158l-1.325 3.86h-1.956l-1.105-3.851h-0.158l-0.184 1.86-0.132 2.781h-2.158l0.816-8.368h2.991l0.246 1.193 0.737 3.035h0.149l0.816-2.947 0.298-1.281h2.947l0.675 8.368z"></path>
            <path fill="#821864" style="fill: var(--color4, #821864)" d="M0.947 28.026c0.002 0.573 0.236 1.091 0.614 1.465l0 0c0.368 0.374 0.879 0.605 1.445 0.605 0.004 0 0.008 0 0.012-0h102.964c0.003 0 0.008 0 0.012 0 0.565 0 1.077-0.232 1.444-0.605l0-0c0.378-0.374 0.612-0.892 0.614-1.465v-0l0.342-25.377v25.377c0 1.332-1.080 2.412-2.412 2.412v0h-102.965c-1.332 0-2.412-1.080-2.412-2.412v-25.377l0.342 25.377z"></path>
            <path fill="#" style="fill: var(--color3, #fff)" d="M14.509 7.895c-2.044 0-2.298 0-3.097 0-0.66 0.019-1.284 0.146-1.864 0.364l0.040-0.013c-0.522 0.203-0.967 0.501-1.333 0.876l-0.001 0.001c-0.375 0.367-0.673 0.812-0.868 1.308l-0.009 0.025c-0.207 0.541-0.332 1.167-0.342 1.82l-0 0.004c0 0.798-0.053 1.053-0.053 3.097s0 2.289 0.053 3.096c0.012 0.658 0.137 1.284 0.355 1.863l-0.013-0.038c0.404 1.009 1.19 1.793 2.176 2.184l0.026 0.009c0.54 0.21 1.166 0.338 1.819 0.351l0.005 0c0.798 0 1.053 0.044 3.097 0.044s2.289 0 3.096-0.044c0.659-0.015 1.284-0.142 1.863-0.364l-0.038 0.013c1.007-0.404 1.789-1.186 2.184-2.167l0.009-0.026c0.209-0.54 0.336-1.165 0.351-1.818l0-0.006c0-0.807 0.044-1.061 0.044-3.096s0-2.298-0.044-3.096c-0.002-0.642-0.114-1.257-0.319-1.828l0.012 0.038c-0.4-1.011-1.184-1.798-2.167-2.193l-0.026-0.009c-0.54-0.204-1.165-0.331-1.816-0.351l-0.009-0c-0.807 0-1.061 0-3.096 0zM13.833 9.254h0.675c2 0 2.246 0 3.035 0.044 0.020-0 0.044-0.001 0.068-0.001 0.476 0 0.932 0.084 1.355 0.237l-0.028-0.009c0.343 0.126 0.637 0.318 0.877 0.561l0 0c0.246 0.239 0.438 0.533 0.556 0.861l0.005 0.016c0.161 0.414 0.257 0.892 0.263 1.392l0 0.002c0 0.789 0.044 1.026 0.044 3.026s0 2.246-0.044 3.035c-0.006 0.503-0.102 0.981-0.273 1.423l0.009-0.028c-0.124 0.344-0.315 0.638-0.561 0.877l-0.001 0c-0.241 0.244-0.534 0.435-0.861 0.556l-0.016 0.005c-0.414 0.161-0.893 0.254-1.395 0.254h-0c-0.789 0-1.035 0-3.035 0s-2.246 0-3.035 0c-0.502-0.004-0.981-0.097-1.423-0.264l0.028 0.009c-0.661-0.256-1.174-0.769-1.424-1.413l-0.006-0.017c-0.161-0.412-0.254-0.89-0.254-1.389 0-0.002 0-0.004 0-0.006v0c0-0.789-0.044-1.026-0.044-3.035s0-2.237 0.044-3.035c0.006-0.502 0.099-0.981 0.264-1.424l-0.010 0.029c0.126-0.344 0.318-0.636 0.561-0.877l0-0c0.239-0.246 0.533-0.438 0.861-0.556l0.016-0.005c0.414-0.161 0.892-0.257 1.392-0.263l0.002-0c0.693 0 0.956 0 2.36-0.044zM18.518 10.5c-0.484 0-0.877 0.393-0.877 0.877s0.393 0.877 0.877 0.877c0.484 0 0.877-0.393 0.877-0.877v0c0-0.484-0.393-0.877-0.877-0.877v0zM14.509 11.553c-2.132 0-3.86 1.728-3.86 3.86s1.728 3.86 3.86 3.86c2.132 0 3.86-1.728 3.86-3.86v0c0-2.132-1.728-3.86-3.86-3.86v0zM14.509 12.903c0.003 0 0.006 0 0.009 0 1.386 0 2.509 1.123 2.509 2.509s-1.123 2.509-2.509 2.509c-1.386 0-2.509-1.123-2.509-2.509v0c0-1.386 1.123-2.509 2.509-2.509v0z"></path>
        </symbol>
        <symbol id="icon-facebook" viewBox="0 0 115 32">
            <path fill="#0866ff" style="fill: var(--color5, #0866ff)" d="M112.106 0h-109.727c-1.31 0-2.379 1.069-2.379 2.379v27.242c0 1.31 1.069 2.379 2.379 2.379h109.727c1.31 0 2.379-1.069 2.379-2.379v-27.242c0-1.31-1.069-2.379-2.379-2.379z"></path>
            <path fill="#075ce6" style="fill: var(--color6, #075ce6)" d="M28.61 31.166v-31.166h1.559v31.166zM39.797 18.658l-0.040 1.592h0.935l1.592-0.040 0.152 0.192-0.165 2.003-1.771-0.040h-0.796v0.179l0.11 2.884h-2.761l0.139-2.609-0.139-6.277h5.932l0.152 0.192-0.179 2.003-2.198-0.081h-0.962zM50.964 25.428h-2.788l-0.248-1.471-0.013-0.040-1.346-0.027-1.125 0.054-0.235 1.485h-2.692l2.692-8.886h3.325l2.431 8.886zM47.502 21.911l-0.604-2.911h-0.165l-0.769 2.911 0.769 0.013 0.769-0.013zM55.66 16.39c0.789 0 1.529 0.123 2.225 0.371l-0.465 2.185-0.179 0.11c-0.239-0.13-0.514-0.233-0.825-0.309-0.311-0.078-0.599-0.119-0.865-0.119-0.559 0-0.962 0.163-1.207 0.487-0.248 0.326-0.371 0.868-0.371 1.628 0 0.888 0.141 1.536 0.425 1.943s0.729 0.613 1.333 0.613c0.257 0 0.543-0.027 0.859-0.076 0.315-0.051 0.593-0.121 0.832-0.212l0.219 0.136-0.219 2.171c-0.55 0.172-1.187 0.259-1.91 0.259-1.474 0-2.585-0.385-3.332-1.154-0.745-0.769-1.118-1.889-1.118-3.363 0-1.485 0.4-2.634 1.201-3.448 0.803-0.814 1.934-1.223 3.399-1.223zM64.986 23.23l0.15 0.192-0.163 2.006h-6.263l0.136-2.609-0.136-6.277h6.373l0.15 0.192-0.179 2.003-2.182-0.081h-1.415l-0.027 1.25h1.359l1.429-0.043 0.15 0.192-0.163 2.006-1.594-0.043h-1.237l-0.013 0.523 0.029 0.769h1.317l2.281-0.083zM71.963 20.853c0.577 0.165 0.995 0.411 1.257 0.736s0.391 0.749 0.391 1.27c0 0.926-0.378 1.601-1.134 2.026s-1.883 0.64-3.385 0.64c-0.832 0-1.816-0.034-2.952-0.096l0.136-2.609-0.136-6.277 3.969-0.013c1.006 0 1.793 0.195 2.361 0.584s0.852 0.953 0.852 1.695c0 0.458-0.116 0.863-0.351 1.216-0.233 0.353-0.57 0.628-1.008 0.83zM70.52 19.205c0-0.32-0.112-0.541-0.335-0.666-0.226-0.123-0.644-0.186-1.259-0.186h-0.123l-0.054 1.813 1.029 0.043c0.257-0.083 0.445-0.201 0.563-0.358s0.179-0.371 0.179-0.646zM69.615 23.711c0.373 0 0.671-0.083 0.885-0.248 0.215-0.163 0.322-0.402 0.322-0.713 0-0.21-0.063-0.38-0.186-0.508-0.123-0.13-0.322-0.239-0.597-0.331l-1.333 0.029-0.013 0.604 0.043 1.111c0.456 0.038 0.749 0.056 0.879 0.056zM78.637 16.377c1.29 0 2.287 0.382 2.994 1.147 0.704 0.765 1.058 1.843 1.058 3.233 0 1.538-0.387 2.73-1.16 3.571-0.774 0.843-1.872 1.263-3.289 1.263-1.292 0-2.29-0.387-2.994-1.16s-1.058-1.869-1.058-3.289c0-1.518 0.387-2.694 1.16-3.522 0.774-0.83 1.869-1.243 3.289-1.243zM78.389 18.575c-0.356 0-0.626 0.060-0.809 0.186-0.183 0.123-0.313 0.34-0.391 0.651-0.078 0.313-0.116 0.765-0.116 1.362 0 0.758 0.040 1.335 0.123 1.728s0.221 0.669 0.418 0.825c0.197 0.157 0.487 0.233 0.872 0.233 0.358 0 0.628-0.060 0.812-0.186 0.183-0.123 0.313-0.342 0.391-0.657 0.076-0.318 0.116-0.771 0.116-1.366 0-0.751-0.040-1.324-0.123-1.717s-0.224-0.669-0.42-0.825c-0.197-0.154-0.487-0.233-0.872-0.233zM87.606 16.377c1.29 0 2.287 0.382 2.992 1.147 0.707 0.765 1.058 1.843 1.058 3.233 0 1.538-0.387 2.73-1.16 3.571-0.771 0.843-1.869 1.263-3.289 1.263-1.29 0-2.287-0.387-2.992-1.16-0.707-0.774-1.058-1.869-1.058-3.289 0-1.518 0.387-2.694 1.16-3.522 0.774-0.83 1.869-1.243 3.289-1.243zM87.358 18.575c-0.358 0-0.628 0.060-0.812 0.186-0.181 0.123-0.313 0.34-0.389 0.651-0.078 0.313-0.118 0.765-0.118 1.362 0 0.758 0.043 1.335 0.125 1.728 0.081 0.394 0.221 0.669 0.418 0.825s0.487 0.233 0.872 0.233c0.358 0 0.626-0.060 0.809-0.186 0.183-0.123 0.315-0.342 0.391-0.657 0.078-0.318 0.118-0.771 0.118-1.366 0-0.751-0.043-1.324-0.125-1.717-0.081-0.394-0.221-0.669-0.418-0.825-0.197-0.154-0.487-0.233-0.872-0.233zM97.74 20.744c0.843 1.319 1.805 2.688 2.885 4.108l-0.040 0.302c-0.962 0.21-1.878 0.356-2.748 0.438l-0.302-0.163c-0.935-1.603-1.697-2.963-2.294-4.079l-0.027 1.194 0.11 2.884h-2.759l0.136-2.609-0.136-6.277h2.802l-0.096 3.707 1.702-2.746 0.467-0.962h2.911l-2.609 4.202z"></path>
            <path fill="#fff" style="fill: var(--color3, #fff)" d="M39.797 18.255l-0.040 1.594h0.935l1.592-0.043 0.152 0.192-0.165 2.006-1.771-0.043h-0.796v0.179l0.11 2.884h-2.761l0.139-2.609-0.139-6.277h5.932l0.152 0.192-0.179 2.006-2.198-0.083h-0.962zM50.964 25.026h-2.788l-0.248-1.469-0.013-0.040-1.346-0.029-1.125 0.056-0.235 1.482h-2.692l2.692-8.886h3.325l2.431 8.886zM47.502 21.511l-0.604-2.911h-0.165l-0.769 2.911 0.769 0.013 0.769-0.013zM55.66 15.99c0.789 0 1.529 0.123 2.225 0.371l-0.465 2.182-0.179 0.11c-0.239-0.127-0.514-0.23-0.825-0.309s-0.599-0.116-0.865-0.116c-0.559 0-0.962 0.161-1.207 0.487-0.248 0.324-0.371 0.868-0.371 1.628 0 0.888 0.141 1.534 0.425 1.943 0.284 0.407 0.729 0.61 1.333 0.61 0.257 0 0.543-0.025 0.859-0.076 0.315-0.049 0.593-0.121 0.832-0.212l0.219 0.136-0.219 2.171c-0.55 0.174-1.187 0.262-1.91 0.262-1.474 0-2.585-0.385-3.332-1.154-0.745-0.769-1.118-1.892-1.118-3.365 0-1.483 0.4-2.632 1.201-3.448 0.803-0.814 1.934-1.221 3.399-1.221zM64.986 22.828l0.15 0.192-0.163 2.006h-6.263l0.136-2.609-0.136-6.277h6.373l0.15 0.192-0.179 2.006-2.182-0.083h-1.415l-0.027 1.25h1.359l1.429-0.040 0.15 0.19-0.163 2.006-1.594-0.040h-1.237l-0.013 0.521 0.029 0.769h1.317l2.281-0.083zM71.963 20.453c0.577 0.163 0.995 0.409 1.257 0.733 0.262 0.326 0.391 0.749 0.391 1.27 0 0.926-0.378 1.601-1.134 2.026-0.756 0.427-1.883 0.639-3.385 0.639-0.832 0-1.816-0.031-2.952-0.096l0.136-2.609-0.136-6.277 3.969-0.013c1.006 0 1.793 0.195 2.361 0.584s0.852 0.955 0.852 1.697c0 0.456-0.116 0.863-0.351 1.214-0.233 0.353-0.57 0.631-1.008 0.832zM70.52 18.805c0-0.322-0.112-0.543-0.335-0.666-0.226-0.123-0.644-0.186-1.259-0.186h-0.123l-0.054 1.813 1.029 0.040c0.257-0.083 0.445-0.201 0.563-0.358 0.118-0.154 0.179-0.369 0.179-0.644zM69.615 23.308c0.373 0 0.671-0.081 0.885-0.246s0.322-0.402 0.322-0.716c0-0.21-0.063-0.38-0.186-0.508s-0.322-0.237-0.597-0.329l-1.333 0.027-0.013 0.604 0.043 1.114c0.456 0.036 0.749 0.054 0.879 0.054zM78.637 15.977c1.29 0 2.287 0.382 2.994 1.145 0.704 0.765 1.058 1.843 1.058 3.236 0 1.538-0.387 2.728-1.16 3.571-0.774 0.841-1.872 1.263-3.289 1.263-1.292 0-2.29-0.387-2.994-1.16s-1.058-1.872-1.058-3.289c0-1.52 0.387-2.694 1.16-3.524 0.774-0.827 1.869-1.241 3.289-1.241zM78.389 18.172c-0.356 0-0.626 0.063-0.809 0.186s-0.313 0.342-0.391 0.653c-0.078 0.311-0.116 0.765-0.116 1.36 0 0.76 0.040 1.337 0.123 1.731s0.221 0.669 0.418 0.823c0.197 0.157 0.487 0.235 0.872 0.235 0.358 0 0.628-0.063 0.812-0.186 0.183-0.125 0.313-0.344 0.391-0.66 0.076-0.315 0.116-0.771 0.116-1.366 0-0.751-0.040-1.324-0.123-1.717s-0.224-0.669-0.42-0.823c-0.197-0.157-0.487-0.235-0.872-0.235zM87.606 15.977c1.29 0 2.287 0.382 2.992 1.145 0.707 0.765 1.058 1.843 1.058 3.236 0 1.538-0.387 2.728-1.16 3.571-0.771 0.841-1.869 1.263-3.289 1.263-1.29 0-2.287-0.387-2.992-1.16-0.707-0.774-1.058-1.872-1.058-3.289 0-1.52 0.387-2.694 1.16-3.524 0.774-0.827 1.869-1.241 3.289-1.241zM87.358 18.172c-0.358 0-0.628 0.063-0.812 0.186-0.181 0.123-0.313 0.342-0.389 0.653-0.078 0.311-0.118 0.765-0.118 1.36 0 0.76 0.043 1.337 0.125 1.731 0.081 0.394 0.221 0.669 0.418 0.823 0.197 0.157 0.487 0.235 0.872 0.235 0.358 0 0.626-0.063 0.809-0.186 0.183-0.125 0.315-0.344 0.391-0.66 0.078-0.315 0.118-0.771 0.118-1.366 0-0.751-0.043-1.324-0.125-1.717-0.081-0.394-0.221-0.669-0.418-0.823-0.197-0.157-0.487-0.235-0.872-0.235zM97.74 20.343c0.843 1.317 1.805 2.686 2.885 4.105l-0.040 0.302c-0.962 0.21-1.878 0.358-2.748 0.441l-0.302-0.165c-0.935-1.601-1.697-2.963-2.294-4.079l-0.027 1.194 0.11 2.884h-2.759l0.136-2.609-0.136-6.277h2.802l-0.096 3.71 1.702-2.748 0.467-0.962h2.911l-2.609 4.204z"></path>
            <path fill="#233b6e" style="fill: var(--color7, #233b6e)" d="M0.367 28.97c0 0.604 0.246 1.154 0.644 1.55 0.396 0.399 0.945 0.646 1.552 0.646h109.36c0.606 0 1.154-0.248 1.552-0.644s0.644-0.945 0.644-1.551c0-0 0-0 0-0v0l0.367-26.956v26.956c0 0.704-0.288 1.346-0.751 1.809-0.463 0.465-1.103 0.753-1.811 0.754h-109.36c-0.704 0-1.346-0.288-1.811-0.754-0.464-0.463-0.751-1.102-0.751-1.809v-26.956l0.367 26.956z"></path>
            <path fill="#075ce6" style="fill: var(--color6, #075ce6)" d="M38.16 8.79l-0.025 0.939h0.55l0.939-0.025 0.087 0.114-0.096 1.181-1.044-0.025h-0.47v0.105l0.065 1.702h-1.626l0.081-1.538-0.081-3.701h3.495l0.089 0.114-0.105 1.183-1.295-0.049h-0.566zM41.995 11.080l0.065 1.702h-1.626l0.081-1.538-0.081-3.701h1.65l-0.089 3.537zM47.766 11.073l0.065 1.708h-1.764l-1.474-2.802h-0.096l-0.009 0.906 0.065 1.896h-1.474l0.081-1.538-0.081-3.701h1.764l1.474 2.802h0.098l-0.049-2.744 1.489-0.089-0.089 3.562zM51.19 7.511c0.771 0 1.364 0.21 1.778 0.628s0.619 1.020 0.619 1.807c0 0.935-0.242 1.652-0.72 2.153-0.481 0.503-1.169 0.754-2.064 0.754-0.561 0-1.221-0.025-1.977-0.072l0.081-1.538-0.081-3.701 2.364-0.031zM51.109 11.648c0.255 0 0.447-0.101 0.579-0.304s0.199-0.534 0.199-0.999c0-0.394-0.027-0.704-0.083-0.93-0.054-0.228-0.139-0.391-0.259-0.49-0.116-0.101-0.282-0.15-0.492-0.15-0.206 0-0.407 0.011-0.608 0.031l-0.056 2.274 0.016 0.503c0.324 0.043 0.559 0.065 0.704 0.065zM59.673 10.199l-0.009 0.834c-0.004 0.593-0.206 1.049-0.599 1.366-0.394 0.32-0.957 0.479-1.69 0.479-0.707 0-1.248-0.159-1.623-0.479-0.376-0.318-0.555-0.774-0.539-1.366l0.025-0.834-0.049-2.656h1.628l-0.074 3.271c-0.004 0.275 0.049 0.474 0.159 0.599 0.11 0.123 0.291 0.186 0.539 0.186 0.253 0 0.436-0.063 0.55-0.186 0.114-0.125 0.168-0.324 0.161-0.599l-0.072-3.271h1.65l-0.056 2.656zM62.571 7.446c0.512 0 1.020 0.094 1.52 0.284l-0.259 1.319-0.226 0.096c-0.226-0.139-0.449-0.25-0.671-0.331s-0.4-0.123-0.534-0.123c-0.125 0-0.224 0.025-0.297 0.074-0.072 0.049-0.107 0.114-0.107 0.195 0 0.103 0.054 0.19 0.165 0.264 0.11 0.072 0.295 0.168 0.555 0.286 0.302 0.134 0.55 0.262 0.745 0.376 0.195 0.116 0.364 0.277 0.51 0.479 0.145 0.203 0.219 0.452 0.219 0.749 0 0.329-0.092 0.626-0.273 0.894-0.181 0.266-0.438 0.479-0.771 0.635-0.335 0.157-0.724 0.235-1.167 0.235-0.55 0-1.127-0.103-1.731-0.309l0.235-1.406 0.161-0.098c0.248 0.19 0.514 0.34 0.798 0.449 0.282 0.112 0.519 0.165 0.707 0.165 0.152 0 0.262-0.025 0.329-0.076s0.101-0.114 0.101-0.19c0-0.114-0.058-0.21-0.174-0.288-0.114-0.078-0.302-0.174-0.561-0.286-0.297-0.13-0.541-0.253-0.733-0.369-0.19-0.116-0.358-0.275-0.496-0.479-0.141-0.201-0.21-0.452-0.21-0.747 0-0.34 0.092-0.646 0.275-0.919s0.438-0.487 0.767-0.644c0.331-0.157 0.704-0.235 1.127-0.235zM68.228 7.446c0.76 0 1.348 0.226 1.764 0.675 0.416 0.452 0.624 1.087 0.624 1.907 0 0.906-0.228 1.608-0.684 2.104s-1.102 0.745-1.939 0.745c-0.76 0-1.348-0.228-1.764-0.684s-0.624-1.102-0.624-1.939c0-0.894 0.228-1.588 0.684-2.075 0.456-0.49 1.102-0.733 1.939-0.733zM68.083 8.741c-0.212 0-0.371 0.038-0.478 0.11-0.107 0.074-0.186 0.201-0.23 0.385-0.047 0.183-0.069 0.452-0.069 0.8 0 0.449 0.025 0.789 0.074 1.020 0.047 0.233 0.13 0.396 0.246 0.487s0.288 0.136 0.514 0.136c0.21 0 0.369-0.036 0.478-0.107 0.107-0.074 0.183-0.203 0.23-0.389 0.045-0.188 0.067-0.456 0.067-0.805 0-0.443-0.022-0.78-0.072-1.013s-0.13-0.394-0.246-0.485c-0.116-0.092-0.288-0.139-0.514-0.139zM75.838 11.073l0.063 1.708h-1.764l-1.471-2.802h-0.098l-0.007 0.906 0.063 1.896h-1.471l0.081-1.538-0.081-3.701h1.764l1.471 2.802h0.098l-0.049-2.744 1.489-0.089-0.087 3.562z"></path>
            <path fill="#fff" style="fill: var(--color3, #fff)" d="M37.932 8.515l-0.025 0.939h0.552l0.939-0.025 0.087 0.114-0.096 1.183-1.044-0.025h-0.47v0.105l0.065 1.699h-1.628l0.081-1.538-0.081-3.698h3.497l0.089 0.114-0.105 1.181-1.295-0.049h-0.568zM41.769 10.807l0.065 1.699h-1.628l0.083-1.538-0.083-3.698h1.652l-0.089 3.537zM47.541 10.798l0.065 1.708h-1.764l-1.474-2.802h-0.096l-0.009 0.908 0.065 1.894h-1.474l0.081-1.538-0.081-3.698h1.764l1.474 2.8h0.096l-0.047-2.744 1.489-0.089-0.089 3.562zM50.964 7.236c0.771 0 1.364 0.21 1.778 0.628 0.411 0.418 0.619 1.022 0.619 1.809 0 0.932-0.242 1.65-0.722 2.153-0.478 0.501-1.167 0.751-2.064 0.751-0.561 0-1.219-0.025-1.974-0.072l0.081-1.538-0.081-3.698 2.364-0.034zM50.883 11.373c0.253 0 0.445-0.101 0.579-0.304 0.132-0.201 0.197-0.534 0.197-0.999 0-0.394-0.027-0.702-0.081-0.93-0.054-0.226-0.141-0.389-0.259-0.49s-0.282-0.15-0.492-0.15c-0.206 0-0.409 0.011-0.608 0.034l-0.056 2.274 0.016 0.501c0.324 0.043 0.559 0.065 0.704 0.065zM59.447 9.924l-0.009 0.834c-0.007 0.593-0.206 1.049-0.599 1.368-0.394 0.318-0.957 0.476-1.69 0.476-0.709 0-1.25-0.159-1.623-0.476-0.376-0.32-0.555-0.776-0.539-1.368l0.025-0.834-0.049-2.654h1.628l-0.074 3.269c-0.004 0.275 0.047 0.476 0.159 0.599 0.11 0.125 0.288 0.186 0.537 0.186 0.255 0 0.438-0.060 0.552-0.186 0.112-0.123 0.165-0.324 0.161-0.599l-0.074-3.269h1.652l-0.056 2.654zM62.343 7.171c0.514 0 1.020 0.096 1.523 0.284l-0.259 1.319-0.226 0.098c-0.228-0.141-0.452-0.253-0.673-0.333s-0.398-0.121-0.534-0.121c-0.123 0-0.221 0.025-0.295 0.072-0.072 0.049-0.107 0.114-0.107 0.195 0 0.103 0.054 0.19 0.165 0.264 0.11 0.074 0.295 0.168 0.552 0.288 0.304 0.134 0.552 0.259 0.747 0.376 0.192 0.116 0.362 0.275 0.51 0.476 0.145 0.203 0.217 0.452 0.217 0.749 0 0.329-0.089 0.628-0.271 0.894-0.181 0.268-0.438 0.479-0.774 0.635-0.333 0.157-0.722 0.235-1.165 0.235-0.55 0-1.127-0.101-1.733-0.306l0.237-1.409 0.161-0.096c0.248 0.188 0.514 0.338 0.796 0.447 0.284 0.112 0.521 0.168 0.709 0.168 0.152 0 0.259-0.027 0.329-0.078 0.067-0.051 0.101-0.114 0.101-0.19 0-0.114-0.058-0.208-0.174-0.286s-0.302-0.174-0.561-0.288c-0.297-0.13-0.541-0.253-0.733-0.369-0.192-0.114-0.358-0.275-0.496-0.476-0.141-0.203-0.212-0.452-0.212-0.749 0-0.34 0.092-0.646 0.275-0.919s0.441-0.487 0.769-0.644c0.329-0.157 0.704-0.235 1.125-0.235zM68 7.171c0.763 0 1.351 0.226 1.766 0.678 0.414 0.449 0.622 1.084 0.622 1.905 0 0.908-0.228 1.608-0.684 2.104-0.454 0.496-1.1 0.745-1.936 0.745-0.763 0-1.351-0.228-1.766-0.682-0.414-0.456-0.622-1.102-0.622-1.941 0-0.894 0.228-1.588 0.684-2.075 0.454-0.487 1.102-0.733 1.936-0.733zM67.855 8.468c-0.21 0-0.369 0.036-0.476 0.107-0.107 0.074-0.186 0.201-0.23 0.385-0.047 0.186-0.069 0.452-0.069 0.803 0 0.447 0.025 0.787 0.072 1.020 0.049 0.233 0.132 0.394 0.248 0.485s0.286 0.139 0.514 0.139c0.21 0 0.369-0.038 0.476-0.11 0.107-0.074 0.186-0.203 0.233-0.389 0.045-0.186 0.067-0.454 0.067-0.805 0-0.443-0.025-0.78-0.072-1.013-0.049-0.23-0.132-0.394-0.248-0.485s-0.286-0.136-0.514-0.136zM75.61 10.798l0.065 1.708h-1.764l-1.474-2.802h-0.096l-0.009 0.908 0.065 1.894h-1.474l0.081-1.538-0.081-3.698h1.766l1.471 2.8h0.098l-0.049-2.744 1.489-0.089-0.089 3.562zM23.751 16.032c0-4.964-4.023-8.987-8.987-8.987s-8.987 4.023-8.987 8.987c0 4.215 2.9 7.752 6.815 8.723v-5.977h-1.854v-2.746h1.854v-1.183c0-3.059 1.384-4.477 4.387-4.477 0.57 0 1.552 0.112 1.954 0.224v2.489c-0.212-0.022-0.581-0.034-1.038-0.034-1.474 0-2.044 0.559-2.044 2.010v0.97h2.936l-0.505 2.746h-2.431v6.176c4.45-0.537 7.898-4.327 7.898-8.922z"></path>
        </symbol>
        <symbol id="icon-youtube" viewBox="0 0 110 32">
            <path fill="#f00" style="fill: var(--color8, #f00)" d="M107.714 0h-105.336c-1.31 0-2.379 1.069-2.379 2.379v27.244c0 1.309 1.069 2.378 2.379 2.378h105.336c1.309 0 2.378-1.069 2.378-2.378v-27.244c0-1.31-1.069-2.379-2.378-2.379v0 0 0z"></path>
            <path fill="#db0000" style="fill: var(--color9, #db0000)" d="M28.611 31.165v-31.165h1.559v31.165h-1.559z"></path>
            <path fill="#c20000" style="fill: var(--color10, #c20000)" d="M42.574 23.093l0.11 2.334h-2.747l0.137-2.334-0.013-0.427-2.844-6.125h2.885l0.219 0.742 1.003 2.677h0.165l1.154-2.581 0.316-0.839h2.802l-3.159 6.030-0.028 0.523zM49.551 16.376c1.291 0 2.289 0.383 2.994 1.147s1.057 1.843 1.057 3.233c0 1.54-0.387 2.73-1.16 3.571-0.774 0.843-1.87 1.265-3.29 1.265-1.291 0-2.289-0.389-2.994-1.162s-1.057-1.871-1.057-3.29c0-1.519 0.387-2.695 1.16-3.523s1.871-1.242 3.29-1.242v0zM49.304 18.573c-0.357 0-0.627 0.063-0.811 0.185-0.183 0.125-0.314 0.341-0.392 0.653s-0.116 0.765-0.116 1.36c0 0.762 0.041 1.337 0.124 1.731s0.222 0.668 0.419 0.824 0.487 0.235 0.873 0.235c0.357 0 0.627-0.063 0.81-0.185 0.183-0.125 0.314-0.343 0.392-0.659s0.116-0.771 0.116-1.366c0-0.751-0.041-1.323-0.124-1.717s-0.222-0.668-0.419-0.824c-0.196-0.158-0.487-0.237-0.872-0.237v0zM62.078 21.045l-0.014 1.416c-0.009 1.006-0.349 1.781-1.017 2.32-0.667 0.541-1.624 0.812-2.871 0.812-1.2 0-2.117-0.271-2.753-0.812s-0.941-1.314-0.914-2.32l0.041-1.416-0.082-4.504h2.76l-0.124 5.549c-0.009 0.467 0.080 0.805 0.268 1.017 0.188 0.21 0.493 0.315 0.914 0.315 0.43 0 0.742-0.105 0.934-0.315s0.283-0.549 0.274-1.017l-0.124-5.549h2.802l-0.096 4.504zM69.852 16.733l-0.151 2.006-1.812-0.082h-0.166l-0.068 3.887 0.109 2.884h-2.747l0.137-2.609-0.069-4.162h-0.178l-1.827 0.082-0.165-0.193 0.151-2.005h6.634l0.151 0.192zM78.176 21.045l-0.014 1.416c-0.009 1.006-0.348 1.781-1.016 2.32-0.669 0.541-1.625 0.812-2.871 0.812-1.201 0-2.118-0.271-2.754-0.812s-0.941-1.314-0.914-2.32l0.041-1.416-0.082-4.504h2.76l-0.124 5.549c-0.009 0.467 0.081 0.805 0.268 1.017 0.188 0.21 0.493 0.315 0.914 0.315 0.43 0 0.742-0.105 0.934-0.315s0.284-0.549 0.276-1.017l-0.124-5.549h2.802l-0.096 4.504zM85.552 20.853c0.577 0.167 0.995 0.411 1.256 0.736 0.262 0.323 0.392 0.747 0.392 1.269 0 0.925-0.378 1.601-1.133 2.027-0.755 0.427-1.885 0.639-3.386 0.639-0.833 0-1.817-0.031-2.953-0.096l0.137-2.609-0.137-6.277 3.97-0.014c1.007 0 1.795 0.194 2.363 0.584s0.852 0.953 0.852 1.696c0 0.459-0.117 0.863-0.351 1.216s-0.57 0.629-1.010 0.83v0zM84.11 19.205c0-0.32-0.112-0.542-0.337-0.665-0.224-0.125-0.643-0.185-1.256-0.185h-0.124l-0.056 1.812 1.029 0.042c0.256-0.084 0.444-0.203 0.564-0.358s0.179-0.372 0.179-0.646v0zM83.203 23.711c0.375 0 0.67-0.082 0.885-0.246s0.323-0.402 0.323-0.714c0-0.211-0.061-0.38-0.185-0.509s-0.323-0.238-0.598-0.329l-1.331 0.026-0.014 0.606 0.041 1.113c0.458 0.036 0.752 0.054 0.88 0.054v0zM94.645 23.23l0.151 0.193-0.166 2.005h-6.263l0.138-2.609-0.138-6.277h6.374l0.151 0.192-0.179 2.006-2.184-0.082h-1.415l-0.027 1.25h1.36l1.429-0.042 0.151 0.193-0.165 2.005-1.593-0.040h-1.236l-0.013 0.521 0.027 0.77h1.319l2.28-0.083z"></path>
            <path fill="#c20000" style="fill: var(--color10, #c20000)" d="M38.805 8.328l-0.023 1.184h0.639l0.883-0.023 0.071 0.094-0.079 0.947-0.97-0.023h-0.56l-0.008 0.276 0.047 1.633h-1.287l0.071-1.508-0.071-3.583h3.188l0.071 0.095-0.087 0.947-1.231-0.047-0.654 0.009zM43.809 7.246c0.727 0 1.287 0.217 1.681 0.651s0.592 1.051 0.592 1.85c0 0.874-0.216 1.55-0.648 2.032s-1.039 0.722-1.822 0.722c-0.721 0-1.279-0.222-1.673-0.667s-0.592-1.074-0.592-1.89c0-0.863 0.214-1.528 0.643-1.996s1.035-0.703 1.819-0.703v0zM43.699 8.272c-0.247 0-0.444 0.048-0.592 0.146s-0.255 0.255-0.323 0.474c-0.069 0.219-0.103 0.514-0.103 0.888 0 0.447 0.034 0.798 0.103 1.054s0.177 0.438 0.327 0.548 0.354 0.166 0.612 0.166c0.253 0 0.452-0.049 0.599-0.146s0.254-0.256 0.319-0.478c0.066-0.22 0.099-0.523 0.099-0.908 0-0.442-0.034-0.789-0.102-1.042s-0.176-0.433-0.323-0.541c-0.147-0.107-0.352-0.161-0.615-0.161v0zM50.195 11.461l-0.087 0.955h-2.864l0.071-1.508-0.071-3.583h1.302l-0.071 3.457 0.023 0.584h1.618l0.079 0.095zM54.19 11.461l-0.087 0.955h-2.864l0.071-1.508-0.071-3.583h1.302l-0.071 3.457 0.023 0.584h1.618l0.079 0.095zM57.143 7.246c0.727 0 1.287 0.217 1.681 0.651s0.591 1.051 0.591 1.85c0 0.874-0.215 1.55-0.647 2.032s-1.039 0.722-1.822 0.722c-0.721 0-1.279-0.222-1.674-0.667s-0.591-1.074-0.591-1.89c0-0.863 0.214-1.528 0.643-1.996s1.035-0.703 1.819-0.703v0zM57.033 8.272c-0.247 0-0.444 0.048-0.592 0.146s-0.254 0.255-0.323 0.474c-0.068 0.219-0.101 0.514-0.101 0.888 0 0.447 0.033 0.798 0.101 1.054s0.177 0.438 0.328 0.548c0.15 0.111 0.354 0.166 0.612 0.166 0.252 0 0.452-0.049 0.599-0.146s0.254-0.256 0.319-0.478c0.066-0.22 0.099-0.523 0.099-0.908 0-0.442-0.034-0.789-0.102-1.042s-0.176-0.433-0.323-0.541c-0.147-0.107-0.353-0.161-0.615-0.161v0zM65.439 12.415h-1.349l-0.639-2.194h-0.080l-0.631 2.194h-1.357l-1.333-5.090h1.247l0.079 0.694 0.733 3.093h0.080l0.75-2.572-0.316-1.215h1.294l0.11 0.822 0.765 2.966h0.079l0.86-3.022 0.134-0.765h1.183l-1.608 5.089zM73.847 9.906l-0.008 0.734c0.006 0.595-0.177 1.053-0.547 1.373s-0.899 0.481-1.583 0.481c-0.662 0-1.169-0.158-1.519-0.473s-0.517-0.768-0.502-1.357l0.017-0.773-0.032-2.565h1.278l-0.056 3.164c-0.005 0.336 0.063 0.583 0.205 0.742s0.363 0.237 0.663 0.237c0.305 0 0.529-0.077 0.675-0.233s0.214-0.393 0.209-0.714l-0.056-3.196h1.303l-0.047 2.58zM77.148 7.246c0.452 0 0.91 0.090 1.373 0.268l-0.205 1.073-0.19 0.071c-0.2-0.132-0.4-0.234-0.599-0.308s-0.374-0.11-0.521-0.11c-0.173 0-0.312 0.043-0.414 0.13s-0.154 0.188-0.154 0.304c0 0.132 0.064 0.243 0.194 0.335s0.333 0.202 0.612 0.328c0.295 0.137 0.533 0.262 0.714 0.374s0.34 0.264 0.473 0.453c0.134 0.189 0.202 0.421 0.202 0.694 0 0.306-0.082 0.581-0.248 0.829s-0.4 0.444-0.706 0.588-0.657 0.217-1.057 0.217c-0.532 0-1.058-0.105-1.579-0.315l0.181-1.144 0.134-0.079c0.22 0.184 0.461 0.327 0.722 0.43s0.485 0.154 0.675 0.154c0.2 0 0.351-0.045 0.454-0.134s0.153-0.194 0.153-0.316c0-0.142-0.065-0.261-0.197-0.355s-0.337-0.205-0.616-0.332c-0.283-0.131-0.516-0.254-0.698-0.367s-0.338-0.264-0.469-0.453c-0.131-0.189-0.197-0.421-0.197-0.694 0-0.311 0.083-0.59 0.248-0.84 0.167-0.25 0.397-0.446 0.694-0.588s0.64-0.211 1.023-0.211v0zM83.685 7.246c0.727 0 1.287 0.217 1.681 0.651s0.592 1.051 0.592 1.85c0 0.874-0.216 1.55-0.648 2.032s-1.038 0.722-1.822 0.722c-0.721 0-1.278-0.222-1.673-0.667s-0.591-1.074-0.591-1.89c0-0.863 0.213-1.528 0.642-1.996s1.036-0.703 1.819-0.703v0zM83.575 8.272c-0.246 0-0.444 0.048-0.591 0.146s-0.255 0.255-0.323 0.474-0.102 0.514-0.102 0.888c0 0.447 0.034 0.798 0.102 1.054s0.177 0.438 0.327 0.548 0.354 0.166 0.612 0.166c0.253 0 0.452-0.049 0.6-0.146s0.254-0.256 0.319-0.478c0.065-0.22 0.099-0.523 0.099-0.908 0-0.442-0.035-0.789-0.103-1.042s-0.176-0.433-0.323-0.541c-0.147-0.107-0.352-0.161-0.615-0.161v0zM91.509 10.806l0.047 1.61h-1.39l-1.807-3.149h-0.079l-0.008 1.357 0.047 1.792h-1.16l0.063-1.499-0.063-3.591h1.381l1.815 3.149h0.079l-0.031-3.101 1.176-0.072-0.071 3.503z"></path>
            <path fill="#fff" style="fill: var(--color3, #fff)" d="M38.805 8.035l-0.023 1.184h0.639l0.883-0.023 0.071 0.094-0.079 0.947-0.97-0.023h-0.56l-0.008 0.276 0.047 1.633h-1.287l0.071-1.507-0.071-3.583h3.188l0.071 0.095-0.087 0.947-1.231-0.047-0.654 0.008zM43.809 6.953c0.727 0 1.287 0.217 1.681 0.651s0.592 1.051 0.592 1.85c0 0.874-0.216 1.55-0.648 2.032s-1.039 0.722-1.822 0.722c-0.721 0-1.279-0.222-1.673-0.667s-0.592-1.074-0.592-1.89c0-0.863 0.214-1.528 0.643-1.996 0.429-0.469 1.035-0.703 1.819-0.703v0zM43.699 7.979c-0.247 0-0.444 0.048-0.592 0.146s-0.255 0.255-0.323 0.474c-0.069 0.219-0.103 0.514-0.103 0.888 0 0.447 0.034 0.798 0.103 1.054s0.177 0.438 0.327 0.548 0.354 0.166 0.612 0.166c0.253 0 0.452-0.049 0.599-0.146s0.254-0.256 0.319-0.478c0.066-0.221 0.099-0.523 0.099-0.908 0-0.442-0.034-0.789-0.102-1.042s-0.176-0.433-0.323-0.541c-0.147-0.107-0.352-0.161-0.615-0.161v0zM50.195 11.167l-0.087 0.955h-2.864l0.071-1.507-0.071-3.583h1.302l-0.071 3.457 0.023 0.584h1.618l0.079 0.094zM54.19 11.167l-0.087 0.955h-2.864l0.071-1.507-0.071-3.583h1.302l-0.071 3.457 0.023 0.584h1.618l0.079 0.094zM57.143 6.953c0.727 0 1.287 0.217 1.681 0.651s0.591 1.051 0.591 1.85c0 0.874-0.215 1.55-0.647 2.032s-1.039 0.722-1.822 0.722c-0.721 0-1.279-0.222-1.674-0.667s-0.591-1.074-0.591-1.89c0-0.863 0.214-1.528 0.643-1.996 0.428-0.469 1.035-0.703 1.819-0.703v0zM57.033 7.979c-0.247 0-0.444 0.048-0.592 0.146s-0.254 0.255-0.323 0.474c-0.068 0.219-0.101 0.514-0.101 0.888 0 0.447 0.033 0.798 0.101 1.054s0.177 0.438 0.328 0.548c0.15 0.111 0.354 0.166 0.612 0.166 0.252 0 0.452-0.049 0.599-0.146s0.254-0.256 0.319-0.478c0.066-0.221 0.099-0.523 0.099-0.908 0-0.442-0.034-0.789-0.102-1.042s-0.176-0.433-0.323-0.541c-0.147-0.107-0.353-0.161-0.615-0.161v0zM65.439 12.122h-1.349l-0.639-2.194h-0.080l-0.631 2.194h-1.357l-1.333-5.090h1.247l0.079 0.694 0.733 3.094h0.080l0.75-2.573-0.316-1.215h1.294l0.11 0.822 0.765 2.967h0.079l0.86-3.023 0.134-0.765h1.183l-1.608 5.089zM73.847 9.612l-0.008 0.734c0.006 0.595-0.177 1.053-0.547 1.373s-0.899 0.482-1.583 0.482c-0.662 0-1.169-0.159-1.519-0.474s-0.517-0.768-0.502-1.357l0.017-0.773-0.032-2.565h1.278l-0.056 3.164c-0.005 0.336 0.063 0.583 0.205 0.742s0.363 0.237 0.663 0.237c0.305 0 0.529-0.077 0.675-0.233s0.214-0.393 0.209-0.714l-0.056-3.196h1.303l-0.047 2.58zM77.148 6.953c0.452 0 0.91 0.090 1.373 0.268l-0.205 1.073-0.19 0.071c-0.2-0.132-0.4-0.234-0.599-0.308s-0.374-0.11-0.521-0.11c-0.173 0-0.312 0.043-0.414 0.13s-0.154 0.188-0.154 0.304c0 0.132 0.064 0.243 0.194 0.335s0.333 0.202 0.612 0.328c0.295 0.137 0.533 0.262 0.714 0.374s0.34 0.264 0.473 0.453c0.134 0.189 0.202 0.421 0.202 0.694 0 0.305-0.082 0.581-0.248 0.828s-0.4 0.444-0.706 0.588-0.657 0.218-1.057 0.218c-0.532 0-1.058-0.106-1.579-0.316l0.181-1.144 0.134-0.079c0.22 0.184 0.461 0.327 0.722 0.43s0.485 0.154 0.675 0.154c0.2 0 0.351-0.045 0.454-0.134s0.153-0.194 0.153-0.315c0-0.142-0.065-0.261-0.197-0.355s-0.337-0.205-0.616-0.332c-0.283-0.131-0.516-0.254-0.698-0.367s-0.338-0.264-0.469-0.453c-0.131-0.189-0.197-0.421-0.197-0.694 0-0.311 0.083-0.59 0.248-0.84 0.167-0.25 0.397-0.446 0.694-0.588s0.64-0.211 1.023-0.211v0zM83.685 6.953c0.727 0 1.287 0.217 1.681 0.651s0.592 1.051 0.592 1.85c0 0.874-0.216 1.55-0.648 2.032s-1.038 0.722-1.822 0.722c-0.721 0-1.278-0.222-1.673-0.667s-0.591-1.074-0.591-1.89c0-0.863 0.213-1.528 0.642-1.996 0.428-0.469 1.036-0.703 1.819-0.703v0zM83.575 7.979c-0.246 0-0.444 0.048-0.591 0.146s-0.255 0.255-0.323 0.474-0.102 0.514-0.102 0.888c0 0.447 0.034 0.798 0.102 1.054s0.177 0.438 0.327 0.548 0.354 0.166 0.612 0.166c0.253 0 0.452-0.049 0.6-0.146s0.254-0.256 0.319-0.478 0.099-0.523 0.099-0.908c0-0.442-0.035-0.789-0.103-1.042s-0.176-0.433-0.323-0.541c-0.147-0.107-0.352-0.161-0.615-0.161v0zM91.509 10.512l0.047 1.61h-1.39l-1.807-3.149h-0.079l-0.008 1.357 0.047 1.792h-1.16l0.063-1.499-0.063-3.591h1.381l1.815 3.149h0.079l-0.031-3.101 1.176-0.072-0.071 3.503z"></path>
            <path fill="#fff" style="fill: var(--color3, #fff)" d="M42.574 22.69l0.11 2.336h-2.747l0.137-2.336-0.013-0.426-2.844-6.126h2.885l0.219 0.742 1.003 2.679h0.165l1.154-2.583 0.316-0.839h2.802l-3.159 6.030-0.028 0.523zM49.551 15.974c1.291 0 2.289 0.383 2.994 1.146 0.705 0.765 1.057 1.845 1.057 3.235 0 1.538-0.387 2.728-1.16 3.571-0.774 0.841-1.87 1.263-3.29 1.263-1.291 0-2.289-0.387-2.994-1.16-0.705-0.775-1.057-1.871-1.057-3.29 0-1.52 0.387-2.695 1.16-3.525 0.774-0.826 1.871-1.241 3.29-1.241v0zM49.304 18.172c-0.357 0-0.627 0.061-0.811 0.185-0.183 0.123-0.314 0.341-0.392 0.653s-0.116 0.765-0.116 1.36c0 0.76 0.041 1.337 0.124 1.731s0.222 0.668 0.419 0.824 0.487 0.233 0.873 0.233c0.357 0 0.627-0.061 0.81-0.185 0.183-0.123 0.314-0.343 0.392-0.658 0.078-0.317 0.116-0.771 0.116-1.368 0-0.751-0.041-1.323-0.124-1.717s-0.222-0.668-0.419-0.824c-0.196-0.158-0.487-0.235-0.872-0.235v0zM62.078 20.645l-0.014 1.414c-0.009 1.008-0.349 1.781-1.017 2.322s-1.624 0.81-2.871 0.81c-1.2 0-2.117-0.27-2.753-0.81s-0.941-1.314-0.914-2.322l0.041-1.414-0.082-4.506h2.76l-0.124 5.549c-0.009 0.467 0.080 0.806 0.268 1.017s0.493 0.317 0.914 0.317c0.43 0 0.742-0.105 0.934-0.317 0.192-0.21 0.283-0.549 0.274-1.017l-0.124-5.549h2.802l-0.096 4.506zM69.852 16.332l-0.151 2.005-1.812-0.082h-0.166l-0.068 3.887 0.109 2.886h-2.747l0.137-2.611-0.069-4.162h-0.178l-1.827 0.082-0.165-0.193 0.151-2.005h6.634l0.151 0.193zM78.176 20.645l-0.014 1.414c-0.009 1.008-0.348 1.781-1.016 2.322s-1.625 0.81-2.871 0.81c-1.201 0-2.118-0.27-2.754-0.81s-0.941-1.314-0.914-2.322l0.041-1.414-0.082-4.506h2.76l-0.124 5.549c-0.009 0.467 0.081 0.806 0.268 1.017s0.493 0.317 0.914 0.317c0.43 0 0.742-0.105 0.934-0.317 0.193-0.21 0.284-0.549 0.276-1.017l-0.124-5.549h2.802l-0.096 4.506zM85.552 20.452c0.577 0.165 0.995 0.409 1.256 0.735s0.392 0.749 0.392 1.27c0 0.924-0.378 1.599-1.133 2.027-0.755 0.426-1.885 0.639-3.386 0.639-0.833 0-1.817-0.033-2.953-0.096l0.137-2.611-0.137-6.277 3.97-0.013c1.007 0 1.795 0.195 2.363 0.584s0.852 0.953 0.852 1.696c0 0.459-0.117 0.865-0.351 1.216-0.234 0.353-0.57 0.63-1.010 0.831v0zM84.11 18.804c0-0.32-0.112-0.542-0.337-0.667-0.224-0.123-0.643-0.185-1.256-0.185h-0.124l-0.056 1.812 1.029 0.042c0.256-0.082 0.444-0.202 0.564-0.357s0.179-0.371 0.179-0.646v0zM83.203 23.309c0.375 0 0.67-0.082 0.885-0.246s0.323-0.402 0.323-0.714c0-0.21-0.061-0.38-0.185-0.507-0.124-0.13-0.323-0.238-0.598-0.331l-1.331 0.028-0.014 0.604 0.041 1.113c0.458 0.036 0.752 0.054 0.88 0.054v0zM94.645 22.828l0.151 0.193-0.166 2.005h-6.263l0.138-2.611-0.138-6.277h6.374l0.151 0.193-0.179 2.005-2.184-0.082h-1.415l-0.027 1.25h1.36l1.429-0.040 0.151 0.193-0.165 2.005-1.593-0.042h-1.236l-0.013 0.521 0.027 0.77h1.319l2.28-0.082z"></path>
            <path fill="#ab0303" style="fill: var(--color11, #ab0303)" d="M0.366 28.971c0 0.604 0.246 1.153 0.644 1.55s0.946 0.644 1.551 0.644h104.968c0.605 0 1.154-0.246 1.55-0.644 0.398-0.397 0.645-0.947 0.645-1.55l0.366-26.957v26.957c0 0.705-0.288 1.346-0.752 1.81s-1.106 0.753-1.811 0.753h-104.967c-0.705 0-1.345-0.288-1.81-0.753-0.463-0.464-0.752-1.105-0.752-1.81v-26.957l0.366 26.957z"></path>
            <path fill="#fff" style="fill: var(--color3, #fff)" d="M24.217 12.467c0 0-0.172-1.218-0.704-1.753-0.673-0.703-1.426-0.708-1.77-0.749-2.472-0.18-6.183-0.18-6.183-0.18h-0.007c0 0-3.71 0-6.183 0.18-0.346 0.042-1.098 0.045-1.771 0.749-0.53 0.535-0.7 1.753-0.7 1.753s-0.176 1.43-0.176 2.863v1.339c0 1.429 0.176 2.862 0.176 2.862s0.172 1.218 0.701 1.755c0.672 0.703 1.556 0.681 1.951 0.756 1.415 0.134 6.010 0.175 6.010 0.175s3.715-0.007 6.186-0.184c0.346-0.040 1.098-0.044 1.771-0.749 0.531-0.534 0.703-1.753 0.703-1.753s0.177-1.43 0.177-2.863v-1.34c-0.004-1.429-0.18-2.862-0.181-2.861v0 0 0 0zM13.728 18.293v-4.967l4.774 2.492-4.774 2.475z"></path>
        </symbol>
        <symbol id="icon-painting" viewBox="0 0 26 32">
            <path fill="#383838" style="fill: var(--color12, #383838)" d="M23.591 14.063c-0.068-0.006-0.147-0.010-0.226-0.010-0.607 0-1.164 0.213-1.601 0.568l0.005-0.004-2.055-3.802c1.032-0.64 2.272-1.041 3.601-1.098l0.016-0.001c0.094 1.823 0 2.5 0.26 4.339z"></path>
            <path fill="#383838" style="fill: var(--color12, #383838" d="M23.073 9.094c-1.337 0.093-2.566 0.476-3.65 1.085l0.044-0.023-1.563-8.578c-0.156-0.68-0.167-1.18 0.594-1.563 0.081-0.023 0.174-0.035 0.27-0.035 0.177 0 0.343 0.044 0.489 0.122l-0.006-0.003c0.224 0.145 0.391 0.36 0.472 0.614l0.002 0.008 3.349 8.372z"></path>
            <path fill="#f7e5d9" style="fill: var(--color13, #f7e5d9)" d="M14.18 31.893c4.195-0.607 7.917-3.352 10.070-6.818-0.195-0.029-0.37-0.080-0.535-0.151l0.014 0.005c-0.515-0.229-0.911-0.649-1.102-1.168l-0.005-0.014c-0.156-0.365-0.703-0.781-1.237-1.201-1.516-1.172-2.984-2.313-2.664-4.948 0.081-0.608 0.264-1.158 0.533-1.655l-0.012 0.025-1.982-3.646c-0.105-0.19-0.183-0.41-0.222-0.644l-0.002-0.012c-0.023-0.047-0.047-0.091-0.065-0.138-0.533 0.315-1.15 0.598-1.796 0.818l-0.071 0.021c-3.594 1.13-6.042-0.487-3.219-4.198 1.93-2.536-2.328-4.833-6.102-2.271-3.073 2.086-5.737 6.677-5.784 11.727-0.065 7.307 6.339 15.401 14.18 14.268z"></path>
            <path fill="#33a867" style="fill: var(--color14, #33a867)" d="M3.505 21.674c0.428 0.536 1.082 0.876 1.815 0.876 1.28 0 2.318-1.038 2.318-2.318s-1.038-2.318-2.318-2.318c-0.546 0-1.048 0.189-1.444 0.505l0.005-0.004c-0.536 0.429-0.877 1.083-0.877 1.817 0 0.547 0.189 1.049 0.505 1.446l-0.004-0.005z"></path>
            <path fill="#fdba21" style="fill: var(--color15, #fdba21)" d="M8.745 27.529c0.495 0.619 1.249 1.012 2.096 1.012 1.479 0 2.677-1.199 2.677-2.677s-1.199-2.677-2.677-2.677c-0.631 0-1.211 0.218-1.669 0.584l0.005-0.004c-0.619 0.495-1.012 1.251-1.012 2.098 0 0.632 0.219 1.212 0.584 1.671l-0.004-0.005z"></path>
            <path fill="#fb434c" style="fill: var(--color16, #fb434c)" d="M16.060 25.336c0.406 0.476 1.006 0.775 1.676 0.775 1.215 0 2.201-0.985 2.201-2.201 0-0.493-0.162-0.948-0.436-1.315l0.004 0.006c-1.797-2.26-5.242 0.469-3.445 2.734z"></path>
            <path fill="#383838" style="fill: var(--color12, #383838)" d="M25.164 22.508c-0.813-2.156-4.109-2.628-3.794-5.227 0.108-0.756 0.516-1.4 1.099-1.817l0.008-0.005c0.229-0.158 0.506-0.265 0.805-0.296l0.008-0.001c0.060-0.007 0.13-0.011 0.201-0.011s0.14 0.004 0.209 0.011l-0.008-0.001c1.706 0.219 2.448 2.003 2.438 3.549 0 1.427-0.552 2.865-0.964 3.802z"></path>
            <path fill="#47bcff" style="fill: var(--color17, #47bcff)" d="M4.133 14.424c0.362 0.453 0.914 0.741 1.534 0.741 1.082 0 1.958-0.877 1.958-1.958s-0.877-1.958-1.958-1.958c-0.463 0-0.888 0.16-1.223 0.429l0.004-0.003c-0.453 0.361-0.74 0.913-0.74 1.532 0 0.462 0.16 0.887 0.428 1.222l-0.003-0.004z"></path>
        </symbol>
        <symbol id="icon-safety" viewBox="0 0 29 32">
            <path fill="#51b53c" style="fill: var(--color18, #51b53c)" d="M14.508 0c5.43 3.44 10.333 5.070 14.544 4.685 0.734 14.87-4.755 23.651-14.487 27.315-9.398-3.43-14.956-11.833-14.544-27.542 4.943 0.26 9.789-0.81 14.487-4.458v0 0z"></path>
            <path fill="#fff" style="fill: var(--color3, #fff)" d="M14.513 1.836c4.805 3.047 9.148 4.487 12.872 4.146 0.651 13.161-4.211 20.935-12.823 24.18-8.318-3.036-13.237-10.474-12.872-24.378 4.375 0.229 8.667-0.716 12.823-3.948v0 0z"></path>
            <path fill="#51b53c" style="fill: var(--color18, #51b53c)" d="M14.646 5.089c3.703 2.346 7.047 3.456 9.917 3.195 0.5 10.141-3.242 16.128-9.88 18.628-0.042-0.016-0.083-0.031-0.125-0.047-0.042 0.016-0.083 0.031-0.125 0.047-6.635-2.5-10.38-8.487-9.88-18.628 2.87 0.263 6.216-0.849 9.917-3.195v0l0.086 0.065 0.091-0.065z"></path>
            <path fill="#fff" style="fill: var(--color3, #fff)" d="M9.229 15.177l1.945-0.026 0.146 0.036c0.393 0.227 0.763 0.484 1.109 0.779 0.25 0.211 0.487 0.44 0.714 0.69 0.698-1.122 1.443-2.156 2.229-3.104 0.862-1.039 1.401-1.609 2.359-2.471l0.19-0.073h2.125l-0.43 0.474c-1.315 1.461-2.138 2.602-3.216 4.159-1.081 1.563-2.044 3.172-2.904 4.828l-0.268 0.516-0.245-0.526c-0.453-0.971-0.995-1.862-1.641-2.659s-1.398-1.505-2.276-2.107l0.161-0.516z"></path>
        </symbol>
        <symbol id="icon-sponge" viewBox="0 0 36 32">
            <path fill="#eab02b" style="fill: var(--color19, #eab02b)" d="M32.678 6.797c1.764 2.841 3.156 5.949 2.999 8.805-0.363 6.642-8.375 7.549-12.376 9.842-3.39 1.943-7.082 6.801-12.019 6.546-1.77-0.092-3.215-0.763-4.44-1.77-1.435-1.179-2.571-2.82-3.578-4.534-0.597-0.666-1.126-1.401-1.577-2.182-1.317-2.281-1.958-4.957-1.58-7.436 0.262-1.725 0.972-3.113 2.010-4.235 1.717-1.858 3.953-2.667 6.249-3.492 3.308-1.188 4.534-2.203 6.195-3.575 0.778-0.643 1.65-1.363 2.89-2.231 1.778-1.244 3.545-2.163 5.338-2.445 1.822-0.286 3.653 0.083 5.518 1.427 1.755 1.264 3.31 3.149 4.359 5.254l0.013 0.026z"></path>
            <path fill="#fcd95b" style="fill: var(--color20, #fcd95b)" d="M0.478 16.124c-0.729 4.787 2.486 10.356 6.996 12.118 3.101 1.212 5.935 0.302 8.517-1.656l0.14-0.107c0.636-0.502 1.262-1.016 1.784-1.462 3.997-3.382 5.39-3.029 9.654-5.018 3.354-1.565 5.823-3.588 6.095-6.987 0.33-4.115-2.262-8.803-5.577-11.191-3.554-2.561-6.953-1.409-10.424 1.021-3.855 2.698-4.245 4.081-9.173 5.851-0.656 0.236-1.418 0.519-2.322 0.882-2.986 1.258-5.191 3.257-5.692 6.548zM10.966 15.632c0.621-0.359 1.416-0.146 1.774 0.475s0.146 1.416-0.475 1.775c-0.621 0.358-1.416 0.146-1.775-0.476s-0.146-1.416 0.476-1.774zM8.757 11.678c0.375-0.216 0.855-0.088 1.071 0.287s0.088 0.854-0.287 1.070c-0.375 0.217-0.855 0.089-1.071-0.287s-0.089-0.854 0.287-1.071zM21.427 17.389c0.57-0.329 1.299-0.134 1.628 0.436s0.133 1.298-0.436 1.627-1.298 0.134-1.627-0.436c-0.329-0.57-0.134-1.299 0.436-1.628zM16.432 7.693c0.342-0.197 0.779-0.080 0.977 0.262s0.080 0.779-0.262 0.977c-0.342 0.197-0.779 0.080-0.977-0.262s-0.080-0.78 0.262-0.977zM16.536 15.316c0.379-0.219 0.865-0.089 1.084 0.291s0.089 0.865-0.291 1.084c-0.379 0.22-0.864 0.089-1.084-0.29s-0.089-0.865 0.291-1.085zM12.852 9.964c0.38-0.219 0.865-0.089 1.084 0.29s0.089 0.865-0.291 1.085c-0.379 0.219-0.864 0.089-1.084-0.291s-0.089-0.865 0.291-1.084zM5.712 14.261c0.425-0.245 0.969-0.1 1.214 0.326s0.1 0.969-0.326 1.214c-0.425 0.246-0.969 0.1-1.214-0.326-0.246-0.425-0.1-0.968 0.326-1.214zM27.712 9.358c0.363-0.21 0.827-0.085 1.037 0.278s0.085 0.828-0.278 1.038c-0.363 0.209-0.827 0.085-1.037-0.278s-0.086-0.828 0.278-1.038zM25.722 4.717c0.431-0.249 0.981-0.101 1.23 0.33s0.101 0.981-0.33 1.23c-0.431 0.249-0.981 0.101-1.23-0.33s-0.101-0.981 0.33-1.23zM27.908 14.29c0.339-0.195 0.772-0.079 0.968 0.259s0.079 0.772-0.259 0.968c-0.339 0.195-0.772 0.079-0.968-0.26-0.060-0.101-0.095-0.224-0.095-0.354 0-0.261 0.141-0.489 0.351-0.612l0.003-0.002zM22.48 8.392c0.375-0.217 0.855-0.089 1.071 0.287s0.088 0.855-0.287 1.071c-0.375 0.217-0.855 0.088-1.071-0.287s-0.088-0.855 0.287-1.071zM20.095 4.845c0.491-0.284 1.118-0.115 1.401 0.375s0.116 1.118-0.375 1.402c-0.491 0.283-1.118 0.115-1.402-0.376s-0.115-1.118 0.376-1.401zM18.019 11.097c0.491-0.283 1.118-0.115 1.402 0.376s0.115 1.118-0.376 1.401c-0.491 0.284-1.118 0.116-1.402-0.375s-0.115-1.118 0.376-1.402zM8.227 23.542c0.425-0.246 0.968-0.1 1.214 0.326s0.1 0.969-0.326 1.214-0.969 0.1-1.214-0.326c-0.246-0.425-0.1-0.969 0.326-1.214zM6.491 18.842c0.638-0.369 1.454-0.15 1.823 0.489s0.15 1.454-0.489 1.823c-0.638 0.368-1.455 0.15-1.823-0.489s-0.15-1.455 0.489-1.823zM12.682 22.983c0.425-0.246 0.969-0.1 1.214 0.325s0.1 0.97-0.326 1.215-0.969 0.1-1.214-0.326c-0.246-0.425-0.1-0.969 0.326-1.214zM14.279 18.982c0.426-0.246 0.97-0.1 1.215 0.326s0.1 0.969-0.326 1.214-0.969 0.1-1.214-0.326c-0.245-0.425-0.1-0.969 0.325-1.214zM22.851 12.217c0.621-0.359 1.416-0.146 1.775 0.475s0.146 1.416-0.475 1.775c-0.622 0.358-1.416 0.146-1.775-0.476s-0.146-1.416 0.475-1.774z"></path>
        </symbol>
    </defs>
</svg>
